<svg version="1.2" xmlns="http://www.w3.org/2000/svg" viewBox="0 0 1448 1448" width="1448" height="1448">
	<title>akimbo-no-tm-red-svg</title>
	<style>
		.s0 { fill: #ffffff } 
	</style>
	<path id="Layer" class="s0" d="m1179.9 878.6l-1.5-0.1q-0.6 0-0.9-0.5-0.5-0.7-1.5-0.4-0.1 0.1-0.2 0.1-0.1 0-0.2 0-0.2-0.1-0.3-0.1-0.1-0.1-0.2-0.2l-0.4-0.6q-0.1 0-0.2-0.1 0 0-0.1-0.1-0.1 0-0.2 0-0.1 0-0.2 0-0.8 0.3-1.4-0.1-0.9-0.5-1.1-0.5-11.5-3.8-22.9-7.6c-0.7-0.2-1.2-0.8-2.2-0.7q-0.6 0-0.8-0.1-0.2-0.2-0.4-0.4-0.3-0.3-0.7-0.3-2.7-0.5-5.1-1.7-0.1-0.1-0.2-0.1-0.1 0-0.2-0.1-0.1 0-0.2 0-0.1 0-0.2 0c-1.4 0.1-1.7-1-3-1q-0.5 0.1-0.9-0.2c-0.9-0.8-1.7-0.3-2.5-0.7q-0.1-0.1-0.3-0.2-0.2-0.2-0.4-0.3l-9.8-3.1q-0.4-0.2-0.8-0.5-0.4-0.3-0.9-0.3-0.3 0-0.6-0.1l-6.3-2q0 0 0 0 0-0.1-0.1-0.1 0 0 0 0 0 0 0 0-0.6-0.6-1.5-0.5-0.5 0.1-0.9-0.2-1.3-0.8-2.8-1.3-10.8-3.3-21.5-6.8-0.3-0.1-0.5-0.4-0.2-0.2-0.4-0.3c-0.9-0.3-1.4 0.3-2.4-0.6q-0.4-0.4-1-0.3-0.9 0.2-1.5-0.5 0-0.1-0.1-0.2-0.1-0.1-0.2-0.1-0.2-0.1-0.3-0.1-0.1 0-0.2 0c-1.4 0.2-1.9-0.5-2.9-0.8q-4.1-1.2-8.1-2.5-0.6-0.2-1.3-0.5-0.3-0.2-0.5-0.4-0.3-0.3-0.8-0.3-0.4 0.1-0.8 0l-5.9-2.1q-0.3-0.1-0.6-0.3-0.3-0.3-0.8-0.3-0.5 0-1-0.1-6.7-2.4-13.5-4.5c-0.7-0.2-1.1-0.8-2-0.7q-0.7 0-0.9-0.1-0.2-0.1-0.3-0.2-0.2-0.1-0.4-0.2l-6.3-2.2q0 0 0 0 0 0-0.1 0 0 0 0 0 0 0-0.1 0-0.9 0.1-1.5-0.6-0.1-0.1-0.2-0.2-0.1 0-0.2-0.1-0.1 0-0.2-0.1-0.1 0-0.3 0h-0.5q-0.5 0-0.9-0.3-0.8-0.6-1.8-0.5-0.2 0-0.3 0-0.1 0-0.2 0-0.1-0.1-0.2-0.1-0.1-0.1-0.2-0.2-0.5-0.4-1-0.5c-3.8-1.2-8-3-11.8-3.7q-0.4 0-0.7-0.2-0.3-0.2-0.6-0.4l-5.8-2q-0.4-0.1-0.8-0.1-0.7 0-1.2-0.6-0.1-0.1-0.2-0.2-0.1 0-0.2-0.1-0.1 0-0.2-0.1-0.1 0-0.2 0h-0.7q-0.5 0-0.9-0.3-0.7-0.6-1.7-0.5-0.1 0-0.2 0-0.2 0-0.3-0.1-0.2 0-0.3-0.1-0.1-0.1-0.2-0.2l-0.3-0.2q0-0.1-0.1-0.2-0.2-0.1-0.3-0.1-0.1 0-0.2 0-0.2 0-0.3 0-1 0.2-1.7-0.5-0.4-0.4-1-0.4-1 0.2-1.7-0.5-0.3-0.3-0.8-0.3l-1-0.1q-0.2 0-0.3 0-0.1-0.1-0.2-0.1-0.1-0.1-0.2-0.1-0.1-0.1-0.2-0.2-0.6-0.7-1.5-0.4-0.1 0-0.3 0-0.1 0-0.2 0-0.1 0-0.2-0.1 0 0-0.1-0.1l-0.6-0.7q-0.1 0-0.1-0.1-0.1 0-0.2-0.1-0.1 0-0.2 0-0.1 0-0.2 0-0.9 0.4-1.7-0.2-0.3-0.3-0.8-0.4l-3.9-1.3q-0.5-0.1-0.8-0.4-0.6-0.4-1.4-0.3-0.5 0-0.9-0.3c-2.1-1.7-4.8-3-6.6-4.6q-4.3-3.8-6.9-8.9-0.3-0.5-0.2-1 0-0.8-0.6-1.4-0.1-0.1-0.2-0.2 0-0.1-0.1-0.2 0-0.1 0-0.2-0.1-0.1-0.1-0.2v-10.5q0-0.5 0.4-1 0.8-1.2 0.5-2.7 0-0.1 0-0.3 0-0.1 0-0.2 0.1-0.1 0.2-0.3 0-0.1 0.1-0.1 0.8-0.7 0.6-1.7-0.1-0.5 0.3-0.9 0.7-0.7 0.7-1.8 0-0.1 0-0.2 0-0.2 0-0.3 0-0.1 0.1-0.2 0-0.1 0.1-0.2c1.2-1.9 1.5-4.1 2.4-5.8 0.8-1.3 1.4-2.3 1.8-3.8 0.8-2.7 2.5-5.1 3.3-7.5 1-2.4 2.1-5.5 3.7-7.7q0.3-0.4 0.2-1 0-0.5 0.2-0.9l3.3-6.5q0.2-0.5 0.1-1-0.1-0.6 0.3-0.9 0.3-0.3 0.5-0.6c0.7-1.7 2.8-5 2.9-6.7q0-0.2 0.1-0.4 1.5-3.3 3.2-6.5c0.2-0.3 0.2-0.6 0.2-0.9q0-0.4 0.1-0.7l3.3-6.3q0.2-0.4 0.2-0.9c0-1.2 0.7-1.7 1.1-2.7q1-2.5 2.4-4.8 0.1-0.2 0.1-0.7 0-0.1 0-0.2 0-0.1 0-0.2 0-0.1 0.1-0.2 0-0.1 0.1-0.2l3.2-6.4q0.2-0.4 0.2-0.9-0.1-0.6 0.2-1c1.2-1.8 2.1-4.1 3.1-6.1q0.3-0.4 0.2-0.9 0-0.7 0.3-1.2 1.6-2.9 3.2-6 0.2-0.4 0.2-0.9 0-0.5 0.2-0.9 1.6-3.3 3.1-6.5 0.2-0.5 0.3-1c0.2-1.3 1.5-3.4 2.2-4.6 1.6-3.3 2.7-6.9 4.7-10.2q0.2-0.4 0.2-0.9c0-2.3 3-5.6 3.6-8 0.6-2.6 2.2-5.2 3.4-7.5q0.1-0.1 0.1-0.2 0.1-0.2 0.1-0.3 0-0.1 0.1-0.2 0-0.1 0-0.3 0-0.1 0-0.3 0-0.2 0.1-0.4 1.7-3.2 3.2-6.5 0.2-0.4 0.2-0.9 0-0.5 0.3-0.9c1.2-1.8 1.9-4.2 3.1-6.1q0.2-0.5 0.2-1 0-0.4 0.2-0.8l3.2-6.3q0.1-0.1 0.1-0.2 0.1-0.1 0.1-0.3 0-0.1 0-0.2 0-0.2 0-0.3l-0.1-0.6q0-0.3 0.3-0.5 0.6-0.4 0.8-1c0.6-1.7 1.6-3.5 2.4-5.1q0.1-0.1 0.1-0.1 0-0.1 0.1-0.2 0-0.1 0-0.2 0-0.2 0-0.3-0.1-0.5 0.2-1c2-3.3 3.1-7 4.8-10.2q1-2 2-4 0.2-0.5 0.2-1-0.1-0.7 0.3-1.3c1.4-2.5 2.4-4.5 3.6-7.6q1.2-3.2 3-6 0.4-0.6 0.3-1.3 0-0.5 0.2-0.9c1.4-2.8 2.9-4.9 3.3-7 0.7-2.5 2.3-5.1 3.5-7.5q0.2-0.3 0.2-0.6 0-0.2 0-0.4 0-0.2 0.1-0.4 1.6-3.3 3.1-6.7 0.4-0.9 0.8-1.8 1-2.2 2-4.4c0.4-0.8 1.1-1.5 1.1-2.6q0-0.5 0.2-0.8l3.3-6.4q0.2-0.5 0.1-1 0-0.5 0.2-0.9c1.3-1.8 1.8-4 3.1-5.9q0.4-0.5 0.3-1.1 0-0.5 0.2-0.9l3.3-6.4q0.2-0.3 0.1-0.8-0.1-0.7 0.2-1.2c1.4-1.8 2.2-4.1 3.3-6.1 0.2-0.4 0.1-0.6 0.1-1q0-0.4 0.2-0.7c1.3-2.5 2.7-4.9 3.5-7.7 0.3-1 0.9-2.2 1.6-3.1q0.3-0.3 0.3-0.7 0-0.4 0.3-0.7 0.2-0.1 0.3-0.4 0.2-0.6-0.3-0.3-105.7 52.9-211.4 105.7c-11.9 5.9-27.8 16-41.1 10.6-4.3-1.7-7.7-5.6-10.4-8.3q-0.5-0.6-1-1.2-0.5-0.6-1-1.2-0.4-0.7-0.8-1.4-0.5-0.6-0.8-1.3l-117.9-235.9q-0.3-0.4-0.4 0.1-0.4 1.1-0.1 2.3 0 0.1 0 0.3 0 0.1-0.1 0.2 0 0.1-0.1 0.2-0.1 0.1-0.2 0.2l-0.3 0.3q-0.1 0.1-0.2 0.2-0.1 0.1-0.1 0.3-0.1 0.1-0.1 0.3 0 0.1 0.1 0.2 0.3 1.4-0.4 2.5-0.1 0.1-0.2 0.2 0 0.1-0.1 0.2 0 0.1 0 0.3-0.1 0.1-0.1 0.2-0.1 1.2-0.5 2.8-18.6 73.8-54.1 216.6c-2.8 11.2-5.6 18.3-15.5 23.2q-3.8 1.8-8.4 1.8-8.6-0.2-17.4-3.8-22.3-9.2-31.7-13.4c-7.4-3.4-15-6.2-22.3-9.7q-0.1 0-0.1-0.1-0.1 0-0.1 0-0.1 0-0.1 0-0.1 0-0.1 0-0.6 0-1.2-0.3-3.1-1.8-6.5-3.1c-3.1-1.3-7.9-2.6-10.6-4.6q-0.4-0.3-0.9-0.2-0.2 0-0.3 0-0.1 0-0.2 0-0.1 0-0.2-0.1-0.1 0-0.2-0.1-0.2-0.1-0.3-0.2-0.3-0.3-0.5-0.3-8.4-3.6-16.9-7.3c-3.7-1.5-7.1-3.2-10.7-4.6q-7.3-3-14.6-6-1.8-0.7-3.4-1.6c-2.1-1.2-4.4-1.7-6.6-2.9-2.6-1.3-5.4-2-7.9-3.6q-0.4-0.3-0.9-0.2-0.6 0.1-1.1-0.2-0.8-0.6-1-0.7-21-8.9-42-18-2.1-0.9-3.3-1.5c-2.2-1-4.5-1.6-6.6-2.7-2.6-1.3-5.3-1.9-7.9-3.6q-0.4-0.3-0.9-0.2-0.8 0.1-1.2-0.3-2.7-1.8-5.8-2.6-0.5-0.1-0.8-0.5-0.4-0.3-0.8-0.2-0.1 0-0.2 0-0.1 0-0.2-0.1-0.1 0-0.2 0-0.1-0.1-0.2-0.2-1-1-2.4-1.4-0.6-0.2-0.3 0.4 0.1 0.3 0.4 0.4 0.5 0.1 0.4 0.6l-0.2 1q0 0.5 0.4 0.9 0.6 0.5 0.6 1.2 0.1 0.4 0.2 0.7l6.8 18.1q0.2 0.3 0.2 0.7 0.1 0.7 0.5 1.2 0.3 0.4 0.3 0.9c0.3 2.1 1.9 3.3 1.9 5.3q0 0.6 0.5 1 0.6 0.4 0.4 1.2 0 0.5 0.2 1c1.3 2 1.9 4.7 2.6 6.3q1 2.5 1.9 5c1 2.9 2.5 6.2 3.5 9.5q0.4 1.6 1.3 3 0.3 0.4 0.4 0.9 0 0.6 0.4 1.6 14.3 38 28.5 76 1.6 4.2 2.3 6.6 0.2 0.5 0.5 0.9 0.8 0.7 0.6 1.7 0 0 0 0 0 0.1 0 0.1 0 0 0 0.1 0 0 0 0l2.5 6.1q0.1 0.5 0.1 1 0.1 0.6 0.5 1 0.4 0.4 0.5 0.9 0.2 1.3 0.8 2.6c1.1 2.3 1.7 4.6 2.7 6.9 0.9 2.2 1.5 4.5 2.4 6.7q1.2 2.6 1.7 4.5 0.7 2.3 1.6 4.6 13.1 34.4 25.9 68.8c4.9 13.3 4.8 25.5-7.3 34.7q-3.3 2.4-9.9 4.6-85.7 28.6-171.5 57.2-0.7 0.2-1.2 0.4-0.4 0.3-0.9 0.3-1 0-1.7 0.6-0.3 0.3-0.8 0.2-1-0.1-1.7 0.6-0.1 0.1-0.2 0.2-0.1 0-0.3 0.1-0.1 0.1-0.3 0.1-0.1 0-0.3 0h-1.2q-0.6 0-0.2 0.5 2.1 3 5.5 4.1 0.5 0.2 0.9 0.6c1.1 1.4 2.9 2.3 4.2 3.2 1 0.8 2.3 1.3 3.3 2q55 36.9 109.9 73.8 5.2 3.5 10.5 6.8c3.4 2.2 7.5 5.8 9.6 9.2 2.4 4.2 5 8.3 3.9 13q-1.5 6.5-3.4 9.5-20.6 34.8-40.6 69.9-3 5.2-10 10.9-0.4 0.3-0.9 0.4-0.8 0-1.5 0.5-0.4 0.3-0.9 0.3-5.8 0.1-11.5 0.1c-5.9-0.1-13.2-5.2-18.9-9q-131.9-88.2-263.8-176.6-8.1-5.4-16.4-11.3c-11.5-8.2-23.4-15.9-34.3-24.8q-4.1-3.2-6.3-9.4c-1.3-3.8-0.9-8-0.8-12.1q0-0.5 0.3-0.9 0.7-0.8 0.6-2-0.1-0.6 0.4-0.9 0.5-0.2 0.4-0.8 0-0.2 0-0.3 0.1-0.2 0.1-0.3 0.1-0.1 0.2-0.2 0.1-0.2 0.2-0.2 1.1-0.8 1.5-2 0.2-0.6 0.6-1l4.7-4.7q0 0 0.1-0.1 0.1 0 0.1-0.1 0.1 0 0.2-0.1 0 0 0.1 0l12.2-5.4q0.4-0.2 0.9-0.1 1.2 0.2 1.8-0.6 0-0.1 0.1-0.2 0.1 0 0.2-0.1 0.2 0 0.3 0 0.1 0 0.2 0 1.1 0.3 1.8-0.5 0.3-0.4 0.9-0.3 1.1 0.1 1.9-0.6 0.3-0.3 0.8-0.3l0.8-0.1q0.1 0 0.2 0 0.1 0 0.2-0.1 0.1 0 0.2-0.1 0.1-0.1 0.2-0.1 0.4-0.6 1.1-0.5 0.3 0 0.7-0.1l6-2.1q0.3-0.1 0.5-0.3 0.5-0.4 1.2-0.3 0.5 0.1 1-0.2 1.3-0.8 2.9-1.3 3.1-0.9 6.2-1.9c0.7-0.2 1.5-0.1 2.2-0.7q0.4-0.4 1-0.4 1 0.1 1.8-0.6 0.4-0.3 0.9-0.2 0.9 0.2 1.5-0.5 0.3-0.4 0.9-0.4c2-0.2 4.2-1.4 6.4-1.9q0.5-0.1 0.9-0.5 0.6-0.5 1.5-0.4 0.2 0.1 0.3 0.1 0.1 0 0.2-0.1 0.1 0 0.2-0.1 0.2 0 0.2-0.1c0.7-0.8 1.4-0.6 2.2-0.8q6.6-2.4 13.3-4.4c0.5-0.2 1.2-0.8 1.9-0.8q0.4 0 0.7-0.1l6-2q0.3-0.2 0.6-0.4 0.1-0.1 0.4-0.2 0.2-0.1 0.6 0 0.7 0.1 1.2-0.3 0.3-0.2 0.6-0.3l22.1-7.3q0.4-0.2 0.8-0.1 0.8 0 1.1-0.7 0.1-0.1 0.2-0.2 0.1-0.1 0.2-0.1 0.1-0.1 0.2-0.1 0.2 0 0.3 0c1.2 0.3 1.5-0.3 2.3-0.6q6.2-2.1 12.4-4 0.4-0.2 0.7-0.4 0.1-0.1 0.3-0.2 0-0.1 0.1-0.1c1.4 0.3 2-0.5 3-0.8q1.9-0.5 3.9-1.2c0.7-0.3 1.1-0.9 2.3-0.7q0.1 0 0.2 0 0.1 0 0.3 0 0.1-0.1 0.2-0.1 0.1-0.1 0.2-0.2l0.2-0.3q0.1-0.1 0.2-0.2 0.1-0.1 0.2-0.1 0.1-0.1 0.3-0.1 0.1 0 0.2 0 1 0.3 1.6-0.4 0.4-0.4 1-0.4 1.1 0 2-0.6 0.5-0.3 1-0.3 0.9 0.1 1.6-0.6 0.3-0.3 0.8-0.3 1.1 0.2 1.9-0.6 0.1 0 0.2-0.1 0.1-0.1 0.2-0.1 0.1 0 0.2-0.1 0.2 0 0.3 0 1.1 0.2 1.9-0.6 0.4-0.3 0.9-0.2 0.9 0.1 1.6-0.6 0.4-0.4 0.9-0.3c1.2 0.1 1.8-0.6 2.6-0.9q1.9-0.5 3.7-1.1c0.9-0.3 1.3-1 2.6-0.7q0.1 0 0.2 0 0.1 0 0.2-0.1 0.1 0 0.2-0.1 0.1 0 0.1-0.1 0.5-0.8 1.5-0.7 0.4 0 0.8-0.2 2.4-1 4.9-1.6c0.8-0.2 1.7-1 2.8-0.9q0.6 0.1 1-0.4 0.6-0.7 1.6-0.4 0.1 0 0.3 0 0.1 0 0.3 0 0.1-0.1 0.2-0.2 0.1-0.1 0.2-0.2 0.6-0.8 1.7-0.5 0.1 0.1 0.2 0.1 0.2 0 0.3-0.1 0.1 0 0.2-0.1 0.1-0.1 0.1-0.2 0.5-0.7 1.2-0.6 0.5 0 0.9-0.2l5.9-2q0.3-0.1 0.6-0.3 0.7-0.5 1.7-0.2 0 0 0.1 0 0.1 0 0.2 0 0 0 0.1-0.1 0.1 0 0.1-0.1l0.2-0.3q0.1-0.1 0.3-0.2 5.6-1.6 11-3.6c0.6-0.3 1.7-0.1 2.4-0.8q0.4-0.4 1-0.3 1 0.2 1.6-0.6 0.2-0.3 0.6-0.3h0.3q0.3 0 0.5-0.1l6.1-2q0.3-0.1 0.6-0.4 0.6-0.4 1.4-0.2 0.5 0.1 0.9-0.3l0.3-0.2q0.2-0.2 0.5-0.3 3.9-1.1 7.7-2.5c0.8-0.3 2-0.2 2.9-1q0.4-0.3 0.9-0.2 0.9 0.1 1.6-0.6 0.1-0.1 0.2-0.1 0.2-0.1 0.3-0.1 0.1-0.1 0.3-0.1 0.1 0 0.2 0 0.8 0.1 1.4-0.3 0.2-0.2 0.6-0.3l7.5-2.5q0 0 0.1 0 0 0 0 0 0.1-0.1 0.1-0.1 0 0 0 0 0.4-0.5 1-0.5 0.4 0 0.8-0.1l8.6-2.9q0.3-0.1 0.5-0.2 0.1-0.2 0.3-0.3c1-0.3 1.6 0.3 2.5-0.6q0.4-0.4 0.9-0.3 1 0.1 1.7-0.6 0.4-0.4 1-0.3 0.8 0.2 1.5-0.4 0.4-0.3 0.9-0.4 2.6-0.6 4.9-1.7 0.4-0.2 0.8-0.2h0.7q0.1 0.1 0.2 0 0.2 0 0.3-0.1 0.1 0 0.1-0.1 0.1-0.1 0.2-0.2 0.5-0.9 1.7-0.5 0.4 0.1 0.7-0.2 0.8-0.9 2-0.7 0.6 0 1-0.4 0.6-0.8 1.6-0.5 0.6 0.2 1-0.3l0.3-0.4q0.1-0.1 0.2-0.2 0.1-0.1 0.2-0.1 0.2 0 0.3 0 0.1 0 0.2 0 1.1 0.4 1.6-0.4 0.4-0.4 0.9-0.4 1.2 0.2 2.1-0.6 0.4-0.3 0.8-0.3 1 0.2 1.6-0.5 0.4-0.3 1-0.3 1.7 0.1 2.5-1.5 0.4-0.6 0-1-0.2-0.2-0.3-0.5-0.7-1.9-3.1-8.3-19.1-50.8-34.9-93-1.1-2.8-2.1-5.6-1.1-2.9-2.2-5.7-1-2.9-2.1-5.8-1.1-2.8-2.2-5.7-6.9-18.5-23-61.4c-1-2.7-1.6-5.1-2.9-7.4q-0.6-1.2-1.1-2.5-2.4-7.1-5-14.1c-0.7-1.6-1.3-4.3-2.6-6.4q-0.3-0.4-0.2-0.9 0.1-0.7-0.3-1.1-0.2-0.3-0.3-0.6l-42.4-113.1q0 0 0 0 0 0 0-0.1 0 0 0 0 0-0.1 0-0.1 0.1-0.7-0.5-1.1-0.4-0.4-0.4-0.9c-0.2-1.7-1.2-3.1-1.7-4.4q-4.4-12.6-9.3-25c-3.9-10.2-7.4-21.8-7-32.3 0.3-8.6 2.9-14 10.4-18.3q0.4-0.2 0.9-0.1 0.7 0 1.2-0.5 0.1 0 0.2-0.1 0.1-0.1 0.2-0.1 0.2-0.1 0.3-0.1 0.1 0 0.3 0c4.6-0.1 11.4-0.8 15.7 0.5 1.3 0.4 2.6 0.3 3.9 0.7q11.5 3.7 18.7 7.1 1.8 0.9 3 1.3c3 1.2 5.9 3 8.3 3.8q3.7 1.3 5.6 2.5 0.1 0 0.2 0.1 0.1 0 0.2 0 0.2 0 0.3 0 0.1 0 0.2 0 0.6-0.1 1.1 0.3 0.2 0.2 0.5 0.4l8.8 3.8q0.4 0.1 0.7 0.1 0.5 0 0.9 0.3 0.2 0.3 0.6 0.4l16.5 7.2q0.4 0.2 0.9 0.2 0.3 0 0.5 0.1 2.5 1.6 5.3 2.5 2 0.7 3.9 1.7 0.9 0.5 3.2 1.2c1.4 0.5 2.6 1.5 4.1 2q3.6 1.1 6.8 3.1 0.1 0 0.2 0.1 0.1 0 0.2 0 0.2 0.1 0.3 0.1 0.1 0 0.2 0 0.2-0.1 0.4 0 0.2 0 0.3 0.1c3.8 2 7.1 2.7 10.4 4.8 1 0.6 1.7 0.2 2.6 0.7 1.4 0.8 2.8 1.4 4.2 2.3q0.5 0.3 1.2 0.2 0.1 0 0.2 0 0.1 0 0.2 0 0.1 0 0.2 0.1 0.2 0 0.2 0.1 2.6 1.6 5.4 2.5 2.8 1 5.4 2.3 0.5 0.2 1.1 0.3c1.5 0.3 3.6 1.9 5.3 2.5 4.3 1.7 8.5 3.6 12.8 5.5q0.1 0.1 0.5 0.1 0.5 0 0.9 0.2 2.2 1.2 4.4 2.3c0.7 0.3 1.2 0 1.9 0.4 3.8 2.2 7.3 3 10.8 4.9q0.3 0.2 0.7 0.3 0.3 0 0.7 0.2l11 4.8q0.8 0.4 1.3 0.4 0.3 0 0.5 0.1c3.4 2 7.2 3 10.7 5q0.3 0.2 0.7 0.2 0.2 0 0.4 0 0.4 0 0.7 0.2c2 1 3.7 2 6 2.8q1.7 0.5 3.2 1.3c2.6 1.3 5.2 2 7.7 3.5q0.5 0.3 0.9 0.3 0.3 0 0.5 0 0.1 0.1 0.1 0.1 0.1 0 0.1 0 0.1 0 0.1 0 0 0 0.1 0l5.2 2.6q0 0 0.1 0.1 0.1 0 0.2 0 0 0 0.1 0 0.1 0 0.2 0c0.9-0.2 1.1 0.5 1.8 0.8q5.3 2.3 10.7 4.4c1.6 0.7 4.8 2.8 6.3 2.8q0.5 0 0.9 0.3 2.3 1.2 4.6 2.3 0.3 0.2 0.7 0.1 0.5 0 0.9 0.2c4 2.1 7.7 3.1 10.7 5q0.4 0.3 1.1 0.2 0.1 0 0.2 0 0.2 0 0.3 0 0.1 0 0.2 0.1 0.1 0 0.2 0.1c2.8 1.8 5.8 2.5 8.7 3.9 2.7 1.4 5.5 2.1 8 3.7q0.5 0.3 1 0.3 0.2 0 0.5 0 0.4 0 0.9 0.3 1.9 1.2 4.1 2.1 3.2 1.2 4.3 1.7 3 1.4 6.2 2.6c0.8 0.3 1.9 1.3 3.1 1.4q0.5 0 1 0.2l4.5 2.4q0.1 0 0.2 0.1 0.1 0 0.2 0 0.1 0 0.3 0 0.1 0 0.2 0 0.7-0.1 1.1 0.3 0.3 0.3 0.7 0.5c1.4 0.6 2.6 1.4 4.1 1.8q1.8 0.6 3.5 1.4 1.8 0.9 4.1 1.7c1.9 0.7 3.4 1.8 5.4 2.4q2.5 0.8 4.6 2.3 0.5 0.2 0.9 0.2c1.7 0.1 4.5 1.9 6.1 2.7q0.4 0.2 0.9 0.2 0.2 0 0.4 0 0.1 0 0.3 0.1 1.5 0.8 3 1.4c1.1 0.5 1.7 1.7 3.4 1.1q0.4-0.1 0.4-0.6v-1q0-0.5 0.4-0.8 0.9-1.2 0.5-2.7 0-0.1 0-0.2 0-0.1 0-0.2 0-0.1 0.1-0.2 0-0.1 0.1-0.2c0.9-1 0.6-1.9 0.9-2.9q45.9-183.6 91.8-367.3 1.4-5.7 2.8-9.9 2.5-7.4 3.9-9.6c2-3.3 3.7-7.1 6.4-9.8q1.6-1.8 3.4-3.5c1.6-1.6 3.4-2.2 5.3-3.2q0.5-0.3 1-0.2 1.4 0.2 2.8-0.2 0.4-0.2 0.9 0 1.5 0.4 3.1 0.2 0.5 0 0.9 0.2 2 1.1 3.9 2 2.1 0.9 3.5 2.3 3.6 3.7 7.3 7.4c1 1 1.2 2.4 2.5 3.4q0.4 0.3 0.5 0.8c0.2 1.2 1 1.5 1.5 2.3q1.7 2.6 3.1 5.3 0.2 0.5 0.5 0.8 0.6 0.6 1.2 1.7 97.2 194.5 194.2 388.5 0.3 0.5 0.8 0.3 201.1-100.6 401.5-200.8 1.8-0.9 7.4-2.5 7.2-2 14.4-1.3c7.4 0.8 13.9 4.3 14.9 12 1.3 9.6-1.8 21.3-5.5 29.5q-0.7 1.6-0.8 2.4-0.1 0.4-0.4 0.9-1.4 2.1-2.3 5c-0.7 2.2-2 4.3-2.8 6.7q-1.2 3.2-3.1 6.2-0.3 0.4-0.3 0.9-0.1 1.2-0.7 2.2-1.2 2.1-2.3 4.1-0.5 1-0.7 2c-0.4 2-1.5 3.7-2.3 5.5-0.3 0.8-1.3 1.8-1.3 2.9q0 0.5-0.2 0.9-1.6 3.2-3.2 6.3-0.1 0.3-0.2 0.6 0 0.2 0 0.4 0 0.3-0.1 0.6c-2.8 5.1-4.1 9.7-6.8 14.3q-0.3 0.5-0.2 1 0.1 0.6-0.3 1.1c-1.2 1.8-2 4-3 6-0.4 0.7-0.2 1.3-0.6 2q-1.6 3.2-3.2 6.5-0.1 0.3-0.1 0.6 0 0.5-0.1 0.7-1.6 3.2-3.3 6.4c-0.3 0.6-0.1 1.2-0.4 1.8q-1.6 3.2-3.1 6.4c-0.4 0.6-0.2 1.3-0.5 1.9-1.1 2.2-2.9 4.9-3.4 7.3-0.4 1.8-2.3 4.7-3.2 6.5-0.3 0.7-0.3 1.4-0.6 2.2q-1.4 3.2-3.2 6.3-0.2 0.4-0.2 0.9 0 0.2 0 0.4 0 0.1-0.1 0.3-1.6 3.4-3.4 6.8 0 0.1-0.1 0.2 0 0 0 0.1 0 0.1 0 0.2 0 0.1 0 0.2 0 0.5-0.1 0.7-1.9 3.3-3.2 6.8c-1.1 2.8-3.6 6.5-3.9 9.1q-0.1 0.2-0.2 0.5c-2.8 4.8-4 9.5-6.6 14q-0.3 0.5-0.3 1.1-0.1 0.5-0.3 1l-3.1 6.2q-0.3 0.5-0.2 1 0 0.6-0.3 1c-1.1 1.7-1.9 3.9-2.9 5.7-0.4 0.8-0.3 1.3-0.7 2.2q-1.6 3.1-3.1 6.3-0.3 0.5-0.3 1 0 0.5-0.2 1c-2 3.9-3.6 7.8-5.5 11.8-1.2 2.4-2.2 5.5-3.6 8.2-1.4 2.6-2.2 5.4-3.5 8.1q-1.1 2-1.8 4.1-1.2 3.2-3 6.1-0.4 0.6-0.4 1.2 0 0.5-0.2 1c-2.8 5-3.9 9.6-6.7 14.1-0.3 0.4-0.1 1.2-0.4 1.8q-2.3 4.5-3.3 6.6-0.1 0.2-0.1 0.6 0 0.5-0.2 1l-3.2 6.3q-0.2 0.5-0.1 1 0 0.4-0.1 0.6-2 3-3.2 6.4-1 2.6-1.8 4.1-1 2-1.9 3.9-0.2 0.5-0.2 1 0 0.4-0.2 0.8c-1.4 2.6-2.5 4.8-3.7 7.8q-1.1 3.2-3 6c-0.5 0.8-0.3 2.1-0.9 3.2-2.5 4.6-3.2 8-5.6 11.9-0.9 1.4-1.1 3.2-1.9 4.7-2.2 4.2-3.4 8.3-6 12.9q-0.3 0.5-0.3 1c-0.2 1.8-2.2 5.2-3 7.1q-1.6 4.1-3.8 7.9-0.2 0.4-0.3 0.9c-0.3 2.2-2.4 5.6-3.5 7.6q-0.2 0.4-0.2 0.9 0.2 0.9-0.5 1.4 0 0.1-0.1 0.1 0 0.1-0.1 0.1 0 0.1-0.1 0.2 0 0 0 0.1-1.2 2.8-2.7 5.5-0.1 0.2-0.1 0.7 0.1 0.5-0.2 0.9c-1.2 2.3-3.1 5.3-3.4 7.8q0 0.3-0.2 0.5c-2.2 3.4-3.2 7.1-5 10.5-1.9 3.8-3 7.7-5.3 11.4-0.4 0.6-0.2 1.8-0.7 2.7q-1.8 3.2-3.1 6.6c-1.1 2.9-3 5.5-3.7 8.5q-0.2 0.6-0.4 1c-2.6 4.7-3.8 9.5-6.4 13.5-0.5 0.9-0.2 1.4-0.6 2.2q-1.5 3.2-3.2 6.3-0.2 0.5-0.1 1 0.1 0.6-0.4 1.1-0.2 0.3-0.3 0.6l-2.8 5.7q0 0 0 0.1 0 0 0 0.1-0.1 0.1-0.1 0.1 0 0.1 0 0.2 0.1 0.7-0.2 1.3 0 0.1 0 0.2-0.1 0-0.1 0-0.1 0.1-0.1 0.1-0.1 0.1-0.1 0.1-0.4 0.1-0.4 0.4 0 0.1 0 0.2 0 0 0 0 0.1 0.1 0.1 0.1 0.1 0 0.1 0l1.5-0.1q0.5 0 0.8 0.4 0.8 0.8 2 0.5 0.1 0 0.2 0 0.2 0 0.3 0 0.1 0.1 0.2 0.2 0.1 0.1 0.2 0.2 0.1 0.4 0.5 0.5 0.1 0.1 0.2 0.1 0.1 0 0.2 0 0.1 0 0.2 0 0.1 0 0.2 0 0.9-0.5 1.4 0.4 0.2 0.6 0.8 0.4 1.3-0.3 2.2 0.6 0.4 0.4 0.9 0.3 1-0.2 1.7 0.7 0.3 0.3 0.8 0.2l0.6-0.1q0.5-0.1 0.8 0.4 0.7 0.9 1.9 0.6 0.1-0.1 0.3-0.1 0.1 0.1 0.2 0.1 0.2 0 0.3 0.1 0.1 0.1 0.2 0.2 0.5 0.7 1.4 0.6 0.6-0.1 1 0.2 0.9 0.8 2.1 0.7 0.5-0.1 0.8 0.3 0.7 0.9 1.8 0.6 0.1 0 0.3 0 0.1 0 0.2 0 0.1 0.1 0.2 0.1 0.1 0.1 0.1 0.2 0.4 0.4 0.8 0.5 0.3 0.1 0.9 0.1 0.8-0.1 1.3 0.6 0.3 0.3 0.8 0.3h0.9q0.1 0 0.3 0 0.1 0.1 0.2 0.1 0.1 0 0.2 0.1 0.1 0.1 0.1 0.1c0.8 0.8 1.7 0.5 2.6 0.9q2.4 1 4.9 1.6 0.5 0.1 0.9 0.4 0.6 0.6 1.5 0.3 0.5-0.1 0.8 0.4 0.6 0.8 1.6 0.6 0 0 0 0 0.1 0 0.1 0 0 0 0.1 0 0 0 0 0l5.8 2q0.5 0.2 1 0.5l0.3 0.2q0.3 0.2 0.7 0.1 0.9-0.3 1.5 0.4 0 0.1 0.2 0.2 0.1 0.1 0.2 0.2 0.1 0 0.3 0 0.1 0 0.2 0 1-0.2 1.6 0.4 0.4 0.4 0.9 0.4c2.3 0.1 5.9 1.9 9.4 2.9q0.4 0.1 0.7 0.4l0.3 0.3q0.2 0.2 0.5 0.1 1-0.3 1.8 0.5 0.4 0.4 1 0.4h0.8q0.1 0 0.3 0 0.1 0.1 0.2 0.1 0.1 0.1 0.2 0.1 0.1 0.1 0.2 0.2 0.5 0.6 1.4 0.4 0.1 0 0.2 0 0.2 0 0.3 0.1 0.1 0 0.2 0.1 0.1 0 0.2 0.1 0.9 0.8 2.1 0.7 0.1 0 0.2 0 0.1 0 0.2 0 0.1 0.1 0.2 0.1 0.1 0.1 0.2 0.2l0.4 0.4q0.5 0.4 1.1 0.2 0.9-0.2 1.4 0.6 0.1 0.1 0.2 0.1 0.1 0.1 0.2 0.2 0.2 0 0.3 0 0.1 0 0.2 0c1.2-0.3 1.6 0.4 2.4 0.7q4 1.2 7.9 2.6 0.5 0.2 1 0.2 0.8 0 1.4 0.6 0.3 0.4 0.7 0.4l0.8-0.1q0.6 0 1 0.5 0.6 0.7 1.5 0.4 0.1 0 0.3 0 0.1 0 0.2 0 0.1 0.1 0.2 0.1 0.1 0.1 0.2 0.2 0.7 0.7 1.8 0.6 0.5 0 0.9 0.3 0.9 0.8 2 0.7 0.2 0 0.3 0 0.1 0 0.2 0 0.1 0.1 0.2 0.1 0.1 0.1 0.2 0.2 0.7 0.8 1.7 0.6 0.2 0 0.3 0 0.1 0 0.2 0 0.1 0 0.2 0.1 0.1 0.1 0.2 0.2 0.7 0.8 1.9 0.5 0.6-0.1 0.9 0.4 0.4 0.6 1.1 0.6 0.4 0 0.8 0.1l6.1 2q0 0 0.1 0 0 0 0 0 0 0 0 0 0 0 0 0.1 0.7 0.6 1.7 0.3 0.1 0 0.2 0 0.2 0 0.3 0.1 0.1 0 0.2 0.1 0.1 0.1 0.2 0.2 0.6 0.9 1.8 0.6 0.2 0 0.3 0 0.1 0 0.3 0 0.1 0.1 0.2 0.2 0.1 0.1 0.2 0.2 0.5 0.7 1.5 0.5 0.1 0 0.3 0 0.1 0 0.2 0 0.1 0 0.2 0.1 0.1 0.1 0.2 0.1 0.8 0.8 1.9 0.7 0.6 0 0.9 0.3 0.8 0.8 1.9 0.7 0.5-0.1 0.9 0.3 0.8 0.7 1.8 0.6 0.1 0 0.2 0 0.1 0 0.3 0 0.1 0 0.2 0.1 0.1 0.1 0.1 0.2 0.8 0.7 1.9 0.5 0.1 0 0.3 0 0.1 0 0.2 0.1 0.1 0 0.2 0.1 0.1 0 0.2 0.1c0.7 0.8 1.4 0.5 2.2 0.8q2.8 1.1 5.7 1.8 0 0 0.1 0.1 0.1 0 0.1 0 0.1 0.1 0.1 0.1 0.1 0.1 0.1 0.1 0.2 0.2 0.4 0.3 0.3 0.2 0.6 0.1 1.1-0.3 1.7 0.5 0.3 0.4 0.9 0.4h0.9q0.5 0 0.8 0.4 0.5 0.7 1.3 0.5 0.6-0.1 1 0.2 0.9 0.8 2.1 0.7 0.5 0 0.9 0.3 0.7 0.8 1.7 0.7 0.6-0.1 1 0.3 0.7 0.7 1.8 0.5 0.1 0 0.2 0 0.1 0 0.2 0.1 0.1 0 0.2 0.1 0.1 0 0.2 0.1 0.5 0.7 1.3 0.6 0.4 0 0.7 0.2l8.4 2.7q0.4 0.2 0.8 0.4l0.4 0.3q0.2 0.1 0.3 0 1.1-0.4 1.8 0.5 0 0.1 0.1 0.2 0.1 0.1 0.2 0.1 0.1 0.1 0.2 0.1 0.2 0 0.3 0h1q0.5 0 0.9 0.5 0.5 0.5 1.3 0.4 0.1-0.1 0.2-0.1 0.2 0 0.3 0.1 0.1 0 0.2 0.1 0.1 0 0.2 0.1 0.9 0.8 2.1 0.7 0.6 0 1 0.4 0.7 0.8 1.7 0.5 0.5-0.1 0.8 0.3c0.8 0.8 1.5 0.5 2.3 0.8q5.3 1.9 10.8 3.5 0.4 0.2 0.8 0.5 0.6 0.5 1.4 0.2 0.1 0 0.2 0 0.2 0 0.3 0 0.1 0.1 0.2 0.2 0.1 0 0.2 0.1 0.5 0.8 1.3 0.7 0.4 0 0.8 0.1l5.7 2q0.4 0.1 0.7 0.3 0.6 0.5 1.4 0.3 0.6-0.1 0.9 0.3 0.7 0.8 1.7 0.6 0.2-0.1 0.3 0 0.1 0 0.2 0 0.2 0 0.3 0.1 0.1 0.1 0.2 0.2 0.7 0.7 1.8 0.6 0.5-0.1 0.9 0.2c1.4 1.1 4.3 1.5 6.1 2.3q0.4 0.1 0.8 0.1 0.9-0.1 1.6 0.7 0.1 0.1 0.2 0.2 0.1 0 0.2 0.1 0.1 0 0.2 0 0.2 0 0.3 0 1-0.3 1.6 0.5 0.3 0.4 0.8 0.4h0.8q0.2 0 0.3 0 0.2 0 0.3 0.1 0.1 0 0.2 0.1 0.1 0.1 0.2 0.2 0.6 0.5 1.5 0.4 0.1 0 0.2 0 0.2 0 0.3 0.1 0.1 0 0.2 0.1 0.1 0 0.2 0.1 0.9 0.8 2.1 0.7 0.1 0 0.3 0 0.1 0 0.2 0.1 0.1 0 0.2 0.1 0.1 0.1 0.2 0.2 0.6 0.7 1.6 0.5 0.6-0.1 1 0.3 0.7 0.8 1.9 0.6 0.5-0.1 0.8 0.3 0.4 0.6 1.1 0.6 0.4 0 0.8 0.1l8.6 2.8q0.3 0.1 0.6 0.4 0.6 0.5 1.5 0.2 0.1 0 0.2 0 0.2 0 0.3 0 0.1 0.1 0.2 0.2 0.1 0 0.2 0.2 0.5 0.8 1.6 0.6 0.1-0.1 0.2-0.1 0.2 0 0.3 0.1 0.2 0 0.3 0.1 0.1 0 0.2 0.1 0.7 0.7 1.7 0.6 0.1 0 0.2 0 0.2 0 0.3 0.1 0.1 0 0.2 0.1 0.1 0 0.2 0.1 0.9 0.8 2 0.7 0.2 0 0.3 0 0.1 0 0.2 0 0.1 0.1 0.2 0.1 0.1 0.1 0.2 0.2 0.7 0.8 1.8 0.6 0.1-0.1 0.2 0 0.1 0 0.2 0 0.1 0 0.2 0.1 0.1 0.1 0.2 0.2 0.6 0.7 1.6 0.5 0.5 0 1 0.3c1.1 0.7 2.1 0.6 3.2 1.2q5.6 3.3 7.3 4.8c16.4 13.7 4.2 30.6-8.2 41-13.3 11.3-26.3 23.2-39.9 33.9q-53.6 42.2-107.1 84.6-97.2 76.9-194.5 153.7c-6.1 4.8-10.1 8.9-16.8 9.3-5.2 0.4-9.2 0.2-12.9-1.4-4-1.7-8.6-7.6-10.6-11.9q-1.4-3.2-3.2-11.4-5.7-25.7-11.6-51.2c-1.8-7.8-5.3-21.1-7.5-32.1q-0.6-3.2-0.2-6.1 0-0.1 0-0.2 0-0.1 0.1-0.2 0-0.1 0.1-0.2 0.1-0.1 0.1-0.2 0.5-0.6 0.5-1.3-0.1-0.6 0.2-1c1.7-3.4 2.9-6.7 6.3-9.2 6.5-4.7 12.5-10.2 17.3-14q115.7-91.4 147-116.3c1.2-1 2.1-2.2 3.7-3.1q3.3-1.8 5.8-4.5 0.6-0.6-0.2-0.6z"/>
	<path id="Layer" fill-rule="evenodd" class="s0" d="m576.8 1242.8q0 1-0.8 1.6-0.4 0.3-0.6 0.7l-26.4 48.6q0 0 0 0-0.1 0.1-0.2 0.2-0.1 0-0.2 0.1-2.4 4.6-4.8 9.1c-2 3.7-3.9 7.3-5.7 11.1-0.5 1.1-1.4 1.6-1.9 2.7q-1.7 3.6-3.4 7.1c-0.5 1.1-1.5 1.6-2 2.7-1.1 2.4-2.9 7-4.7 8.8q-0.2 0.2-0.3 0.4-3.1 6.7-4.2 8.3-2.7 4.4-3.5 6-2.8 5.3-5.6 10.6c-1.6 2.8-6.1 7.7-8.9 9.2q-1.4 0.8-2.8 1.5-0.5 0.3-1.1 0.2-0.7-0.1-1.2 0.4-0.1 0.1-0.2 0.2-0.1 0.1-0.2 0.1-0.1 0.1-0.2 0.1-0.1 0-0.2 0-79.4 0-158.9 0c-8.2 0-16-0.7-22.9-4.6-7.3-4-10.1-10.7-13.6-17.7q-0.3-0.7-0.5-2c-0.1-1.1-0.6-1.9-0.7-2.9q-1.6-15.9 7-30.7c10-17.3 20.1-34.5 30.1-51.8q15.8-27.4 31.9-54.6 1-1.8 1.9-3.6c1.9-4.1 4.9-8.1 6.7-11.7 0.7-1.6 1.7-2.7 2.4-3.9 4.2-8.2 9.2-15.8 13.8-24.1q0 0 2.1-3.4c1-1.6 1.7-3.4 2.6-4.8q2.7-4.2 5-8.5c1.5-2.8 3.6-6.2 5.4-9.2q19.1-33.2 38.4-66.2 0.7-1.1 2-3.7 0.9-1.8 2-3.6c3.3-5.3 6.3-10.7 9.4-16.1q11.2-19.1 22.3-38.3 2.3-3.9 3.2-5.7 0.2-0.5 0.6-0.8 0.3-0.2 0.4-0.5c1.2-2.9 3.2-5.7 4.7-8.4q0.3-0.7 1.6-2.4c0.9-1.3 1.5-2.9 2.3-4.3q3.5-6 6.9-12 0-0.1 0.1-0.2 0.2 0 0.2-0.2 12.3-21.4 18.6-31.9 1.6-2.7 2.5-4.4c1-2 2.5-3.9 3.5-6 0.8-1.9 2.4-3.6 3.2-5.7q0.1-0.5 0.5-0.9 0.2-0.2 0.3-0.4 7.6-13.2 15.3-26.3 3.4-5.7 6.6-11.5 0.3-0.6 1.7-2.8c0.9-1.2 1.3-2.6 2.2-3.8 1.6-2.3 2.6-4.9 4.2-7.3 1.3-2 2-4 3.5-6.1 0.9-1.1 1.3-2.7 2.2-3.8q0.4-0.5 0.6-1 1.4-3 3.1-5.8 5.1-8.5 10.2-17.1c0.6-0.9 1.5-2.9 2.5-4.1 1.5-2 2.2-4.4 3.6-6.5 2.2-3.3 3.8-7.1 6-10.3 1.6-2.3 2.7-4.9 4.2-7.1 1.3-2.1 2.5-4.6 3.5-6.3q8.9-14.9 17.4-30c1.1-1.9 3-4.5 4-7.3 0.3-0.6 1.3-1.2 1.7-2.1q1.1-2.5 2.9-5.3 2-3.2 5.5-9.2 4-6.7 7.7-13.5c2.1-3.8 4.8-8.1 7-12.2q0.6-1.1 2.5-4.2c1.2-1.8 2.1-3.9 3.2-5.7q3.4-5.2 5.2-8.8 0.7-1.5 1.4-2.2 0.3-0.4 0.5-0.8c0.9-2.2 2.5-4.3 3.4-6q2.3-4.3 4.7-8.5 0.7-1.2 1.3-1.8 0.3-0.4 0.5-0.9c0.9-2.3 2.5-3.9 3.8-6.6q0.5-1.3 1.8-3.1c1.1-1.5 1.5-3.2 2.8-4.5q3.4-3.5 6.8-6.9 0.4-0.3 0.8-0.4 0.2 0 0.4 0 0.3 0 0.4-0.3 0.5-0.7 1.4-0.7 0.5 0 0.7-0.4 0.2-0.5 0.6-0.5 82.4 0 164.8 0 0.1 0 0.2 0 0.1 0.1 0.2 0.1 0.1 0.1 0.2 0.1 0.1 0.1 0.1 0.2l0.2 0.3q0.1 0 0.2 0.1 0.1 0.1 0.2 0.1 0.1 0.1 0.2 0.1 0.1 0 0.2-0.1 0.5 0 0.8 0.4 0.2 0.4 0.7 0.5c6.5 1.8 9.6 10 10.9 15.9q72.8 320.1 145.7 640.2 3.1 13.5 1.6 24c-1 6.7-11 16.4-16 20.8-0.7 0.7-0.9 0.7-1.9 0.7q-0.1-0.1-0.2 0-0.1 0-0.3 0.1-0.1 0-0.2 0.1-0.1 0.1-0.1 0.2-0.6 0.7-1.5 0.4-0.1 0-0.2 0-0.1 0-0.2 0-0.1 0.1-0.3 0.1-0.1 0.1-0.1 0.1-0.8 0.6-1.7 0.8-9 1.8-18.2 1.8-79.7-0.1-159.3-0.1c-2.8 0-5.5-0.8-7.7-2.7-5.5-4.5-7.2-7.8-8.6-15q-10-53-20.1-105.9c-0.3-1.3-0.2-2.9-1.1-4.3q-0.3-0.4-0.2-0.9v-0.9q0.1-0.5-0.5-0.5h-201q-0.5 0-0.5 0.5zm154-314.9c-0.5 0.5-0.8 0.7-1.1 1.3-7.7 14.1-15.8 28-23.4 42.1-0.9 1.7-3 4.4-3.9 7.1-0.3 0.9-1.1 1.2-1.5 2q-1.6 3.2-3.2 6.5c-0.3 0.6-1.1 1.1-1.5 1.8-1.4 2.9-2.5 5-4.5 8.4q-0.9 1.6-2 3.9c-0.3 0.7-1.2 1.3-1.6 2.3-1.5 3.4-3.6 6.5-5.2 9.7q-1.3 2.4-2.7 4.7c-1.5 2.4-2.6 5-4.1 7.5q-0.5 0.9-2.2 3.9-0.9 1.6-2.4 3.9-1.2 1.7-3.3 6.7-0.2 0.5-0.6 0.8c-1.1 0.8-2.6 4.5-4 7.4-0.3 0.7-1.1 1.1-1.5 2-1.3 2.9-3.2 5.5-4.5 8.2q-1.1 2.3-2.4 4.4c-1.8 2.8-2.9 5.3-4.4 8.1-0.2 0.5-0.6 0.7-1 1q-1.1 0.9 0.2 0.9h112q0.1 0 0.3 0 0.1-0.1 0.2-0.1 0-0.1 0.1-0.2 0.1-0.1 0.1-0.2 0.2-1.8-0.6-3.3-0.3-0.4-0.3-0.9 0-1.2-0.2-2.3-13.7-65.6-27.3-131.3c-0.3-1.2-0.3-3.2-1-4.9q-0.3-0.4-0.3-0.9l-0.1-2.6q0-0.7-0.6-0.3-0.9 0.5-1.1 1.5-0.1 0.5-0.4 0.9z"/>
</svg>