<?xml version="1.0" encoding="UTF-8" standalone="no"?>
<!DOCTYPE svg PUBLIC "-//W3C//DTD SVG 1.1//EN" "http://www.w3.org/Graphics/SVG/1.1/DTD/svg11.dtd">
<svg xmlns="http://www.w3.org/2000/svg" version="1.1" viewBox="0.00 0.00 1448.00 1448.00">
<path fill="#e0351b" d="
  M 1179.89 878.57
  L 1178.43 878.48
  Q 1177.85 878.45 1177.50 877.99
  Q 1176.97 877.30 1176.05 877.64
  A 0.82 0.81 60.0 0 1 1175.14 877.39
  L 1174.68 876.84
  A 0.63 0.63 0.0 0 0 1174.00 876.64
  Q 1173.18 876.90 1172.56 876.55
  Q 1171.67 876.03 1171.52 875.98
  Q 1160.04 872.20 1148.57 868.40
  C 1147.90 868.18 1147.41 867.63 1146.41 867.67
  Q 1145.85 867.69 1145.62 867.56
  Q 1145.38 867.44 1145.20 867.25
  Q 1144.90 866.94 1144.48 866.86
  Q 1141.81 866.36 1139.37 865.16
  A 1.53 1.53 0.0 0 0 1138.59 865.01
  C 1137.22 865.08 1136.95 863.96 1135.59 864.04
  Q 1135.10 864.07 1134.72 863.76
  C 1133.77 862.98 1132.97 863.55 1132.23 863.11
  Q 1132.07 863.02 1131.94 862.89
  Q 1131.75 862.69 1131.48 862.61
  L 1121.75 859.50
  Q 1121.28 859.35 1120.90 859.05
  Q 1120.50 858.74 1120.00 858.73
  Q 1119.69 858.73 1119.40 858.63
  L 1113.13 856.57
  A 0.37 0.36 76.9 0 1 1112.96 856.46
  Q 1112.40 855.86 1111.53 856.00
  Q 1111.04 856.08 1110.62 855.83
  Q 1109.29 855.02 1107.80 854.55
  Q 1097.05 851.18 1086.35 847.67
  Q 1086.02 847.56 1085.78 847.31
  Q 1085.61 847.13 1085.39 847.04
  C 1084.47 846.68 1084.04 847.30 1083.02 846.41
  Q 1082.57 846.02 1081.98 846.12
  Q 1081.10 846.28 1080.54 845.57
  A 0.94 0.94 0.0 0 0 1079.67 845.23
  C 1078.35 845.43 1077.84 844.66 1076.81 844.37
  Q 1072.71 843.24 1068.70 841.88
  Q 1068.07 841.66 1067.44 841.36
  Q 1067.15 841.22 1066.92 840.99
  Q 1066.59 840.68 1066.09 840.74
  Q 1065.70 840.79 1065.33 840.66
  L 1059.36 838.60
  Q 1059.07 838.50 1058.85 838.29
  Q 1058.49 837.96 1057.99 838.00
  Q 1057.49 838.04 1057.02 837.87
  Q 1050.32 835.51 1043.52 833.43
  C 1042.78 833.21 1042.44 832.60 1041.47 832.66
  Q 1040.80 832.70 1040.56 832.58
  Q 1040.42 832.51 1040.31 832.42
  Q 1040.13 832.28 1039.92 832.21
  L 1033.64 830.01
  A 0.47 0.44 -35.3 0 0 1033.43 829.98
  Q 1032.49 830.07 1031.93 829.40
  A 1.12 1.11 -21.2 0 0 1031.04 829.01
  L 1030.51 829.03
  Q 1029.98 829.05 1029.56 828.70
  Q 1028.81 828.07 1027.76 828.20
  A 1.14 1.11 61.4 0 1 1026.92 827.94
  Q 1026.45 827.54 1025.88 827.37
  C 1022.10 826.25 1017.86 824.36 1014.06 823.72
  Q 1013.68 823.66 1013.37 823.45
  Q 1013.09 823.25 1012.76 823.14
  L 1007.01 821.15
  Q 1006.64 821.02 1006.24 821.01
  Q 1005.48 821.00 1004.97 820.37
  A 0.96 0.94 -19.7 0 0 1004.21 820.02
  L 1003.49 820.04
  Q 1002.97 820.05 1002.59 819.70
  Q 1001.91 819.09 1000.95 819.21
  A 1.24 1.23 -25.4 0 1 999.90 818.84
  L 999.65 818.57
  A 1.01 1.00 62.0 0 0 998.71 818.28
  Q 997.70 818.50 997.00 817.79
  Q 996.60 817.37 996.02 817.44
  Q 995.03 817.56 994.33 816.91
  Q 993.96 816.58 993.47 816.56
  L 992.46 816.50
  A 1.24 1.21 70.3 0 1 991.62 816.09
  Q 990.98 815.37 990.06 815.69
  A 0.72 0.72 0.0 0 1 989.28 815.48
  L 988.71 814.83
  A 0.63 0.63 0.0 0 0 988.03 814.65
  Q 987.07 814.98 986.33 814.41
  Q 985.97 814.14 985.54 814.00
  L 981.56 812.75
  Q 981.13 812.61 980.76 812.34
  Q 980.17 811.91 979.41 811.99
  Q 978.90 812.04 978.50 811.72
  C 976.38 810.01 973.72 808.67 971.92 807.09
  Q 967.63 803.31 964.96 798.19
  Q 964.73 797.75 964.76 797.24
  Q 964.82 796.36 964.19 795.77
  A 1.12 1.11 21.7 0 1 963.84 794.96
  L 963.85 784.54
  Q 963.85 783.98 964.17 783.52
  Q 965.03 782.33 964.72 780.79
  A 0.98 0.98 0.0 0 1 965.03 779.85
  Q 965.81 779.17 965.61 778.18
  Q 965.50 777.66 965.88 777.28
  Q 966.61 776.56 966.56 775.51
  A 1.47 1.45 60.8 0 1 966.81 774.60
  C 968.04 772.75 968.33 770.53 969.25 768.85
  C 969.96 767.54 970.57 766.47 971.03 764.95
  C 971.84 762.33 973.47 759.93 974.35 757.53
  C 975.26 755.06 976.41 751.96 977.98 749.84
  Q 978.31 749.39 978.24 748.81
  Q 978.18 748.31 978.41 747.85
  L 981.66 741.41
  Q 981.90 740.94 981.79 740.42
  Q 981.66 739.84 982.10 739.50
  Q 982.43 739.23 982.60 738.85
  C 983.33 737.17 985.39 733.87 985.46 732.23
  Q 985.47 732.00 985.57 731.79
  Q 987.13 728.51 988.83 725.31
  C 989.01 724.97 989.01 724.75 989.00 724.38
  Q 988.98 724.03 989.14 723.72
  L 992.38 717.36
  Q 992.58 716.97 992.57 716.54
  C 992.56 715.33 993.33 714.76 993.72 713.84
  Q 994.75 711.34 996.10 709.01
  Q 996.21 708.81 996.19 708.27
  A 1.58 1.55 57.8 0 1 996.36 707.48
  L 999.61 701.12
  Q 999.84 700.67 999.77 700.17
  Q 999.70 699.63 999.98 699.21
  C 1001.22 697.37 1002.11 695.13 1003.14 693.15
  Q 1003.38 692.70 1003.35 692.19
  Q 1003.32 691.51 1003.58 691.05
  Q 1005.25 688.08 1006.76 685.03
  Q 1006.98 684.60 1006.99 684.12
  Q 1007.01 683.62 1007.22 683.17
  Q 1008.78 679.92 1010.30 676.66
  Q 1010.51 676.22 1010.58 675.74
  C 1010.77 674.40 1012.13 672.33 1012.77 671.07
  C 1014.44 667.79 1015.48 664.22 1017.49 660.92
  Q 1017.74 660.52 1017.74 660.05
  C 1017.74 657.71 1020.71 654.37 1021.29 652.01
  C 1021.94 649.39 1023.51 646.85 1024.75 644.48
  A 1.95 1.90 -32.5 0 0 1024.97 643.55
  Q 1024.96 643.36 1024.97 643.18
  Q 1024.97 643.01 1025.06 642.85
  Q 1026.79 639.64 1028.31 636.32
  Q 1028.52 635.87 1028.51 635.38
  Q 1028.50 634.88 1028.77 634.49
  C 1030.01 632.73 1030.75 630.33 1031.86 628.43
  Q 1032.14 627.94 1032.13 627.40
  Q 1032.12 626.96 1032.32 626.57
  L 1035.53 620.32
  A 1.85 1.81 55.7 0 0 1035.71 619.30
  L 1035.65 618.73
  Q 1035.61 618.36 1035.93 618.17
  Q 1036.53 617.82 1036.72 617.23
  C 1037.27 615.52 1038.30 613.75 1039.12 612.14
  A 1.33 1.25 -36.7 0 0 1039.26 611.35
  Q 1039.18 610.77 1039.49 610.27
  C 1041.55 606.97 1042.60 603.32 1044.26 600.06
  Q 1045.28 598.07 1046.29 596.08
  Q 1046.51 595.63 1046.48 595.13
  Q 1046.45 594.43 1046.80 593.81
  C 1048.22 591.29 1049.22 589.29 1050.37 586.22
  Q 1051.57 583.05 1053.41 580.16
  Q 1053.77 579.59 1053.74 578.94
  Q 1053.72 578.44 1053.94 578.00
  C 1055.29 575.16 1056.76 573.06 1057.25 571.01
  C 1057.86 568.45 1059.53 565.88 1060.71 563.54
  Q 1060.86 563.25 1060.87 562.91
  Q 1060.88 562.69 1060.88 562.48
  Q 1060.89 562.26 1060.99 562.06
  Q 1062.65 558.80 1064.08 555.44
  Q 1064.47 554.52 1064.91 553.58
  Q 1065.94 551.37 1066.92 549.16
  C 1067.27 548.37 1068.04 547.75 1068.04 546.56
  Q 1068.05 546.15 1068.23 545.79
  L 1071.46 539.43
  Q 1071.71 538.94 1071.63 538.40
  Q 1071.56 537.92 1071.84 537.53
  C 1073.14 535.69 1073.64 533.49 1074.95 531.62
  Q 1075.30 531.13 1075.23 530.48
  Q 1075.18 530.01 1075.40 529.59
  L 1078.66 523.25
  Q 1078.86 522.86 1078.79 522.42
  Q 1078.69 521.75 1079.05 521.24
  C 1080.38 519.41 1081.25 517.08 1082.26 515.06
  C 1082.46 514.67 1082.45 514.48 1082.43 514.06
  Q 1082.41 513.72 1082.57 513.42
  C 1083.87 510.92 1085.33 508.48 1086.12 505.75
  C 1086.42 504.68 1086.98 503.49 1087.72 502.65
  Q 1088.01 502.32 1087.99 501.88
  Q 1087.97 501.45 1088.33 501.21
  Q 1088.55 501.06 1088.63 500.80
  Q 1088.81 500.24 1088.28 500.50
  Q 982.60 553.37 876.90 606.19
  C 865.02 612.13 849.13 622.22 835.83 616.83
  C 831.52 615.08 828.07 611.20 825.40 608.46
  A 20.78 20.55 10.0 0 1 821.80 603.38
  L 703.89 367.54
  Q 703.64 367.05 703.48 367.58
  Q 703.14 368.72 703.37 369.91
  A 0.92 0.91 -25.4 0 1 703.05 370.80
  L 702.67 371.12
  A 0.97 0.96 61.8 0 0 702.36 372.15
  Q 702.75 373.47 701.98 374.56
  A 1.96 1.91 -25.9 0 0 701.63 375.53
  Q 701.54 376.69 701.13 378.31
  Q 682.54 452.15 647.00 594.87
  C 644.21 606.09 641.41 613.17 631.53 618.06
  Q 627.72 619.94 623.12 619.85
  Q 614.48 619.69 605.70 616.08
  Q 583.39 606.92 574.02 602.68
  C 566.63 599.34 559.02 596.49 551.69 592.98
  A 1.23 1.08 -28.2 0 0 551.26 592.88
  Q 550.65 592.87 550.15 592.59
  Q 547.00 590.79 543.64 589.47
  C 540.46 588.22 535.75 586.90 533.04 584.93
  Q 532.62 584.63 532.06 584.73
  A 1.22 1.20 -31.6 0 1 531.17 584.53
  Q 531.00 584.42 530.86 584.28
  Q 530.63 584.05 530.42 583.96
  Q 521.96 580.36 513.50 576.75
  C 509.81 575.18 506.39 573.54 502.81 572.09
  Q 495.48 569.12 488.17 566.10
  Q 486.45 565.39 484.81 564.48
  C 482.70 563.32 480.41 562.76 478.23 561.65
  C 475.60 560.31 472.85 559.63 470.31 558.00
  Q 469.88 557.73 469.38 557.82
  Q 468.77 557.93 468.28 557.56
  Q 467.52 556.99 467.29 556.89
  Q 446.26 547.95 425.27 538.92
  Q 423.25 538.05 421.97 537.43
  C 419.82 536.40 417.55 535.84 415.41 534.73
  C 412.79 533.39 410.07 532.77 407.55 531.11
  Q 407.13 530.83 406.63 530.88
  Q 405.79 530.96 405.36 530.65
  Q 402.72 528.78 399.61 528.02
  Q 399.12 527.91 398.77 527.54
  Q 398.44 527.21 397.96 527.28
  A 0.91 0.89 63.2 0 1 397.20 527.02
  Q 396.21 526.02 394.85 525.58
  Q 394.20 525.38 394.48 526.00
  Q 394.62 526.33 394.91 526.40
  Q 395.38 526.51 395.31 526.99
  L 395.15 527.95
  Q 395.06 528.54 395.51 528.92
  Q 396.11 529.41 396.14 530.09
  Q 396.16 530.45 396.29 530.78
  L 403.12 548.86
  Q 403.26 549.22 403.29 549.59
  Q 403.36 550.26 403.79 550.81
  Q 404.09 551.19 404.15 551.68
  C 404.45 553.77 405.98 554.99 406.03 556.98
  Q 406.04 557.57 406.49 557.95
  Q 407.07 558.43 406.95 559.24
  Q 406.87 559.75 407.14 560.19
  C 408.38 562.21 409.05 564.85 409.72 566.51
  Q 410.72 568.97 411.59 571.48
  C 412.60 574.39 414.13 577.74 415.07 580.98
  Q 415.54 582.61 416.44 584.03
  Q 416.70 584.43 416.76 584.91
  Q 416.83 585.47 417.22 586.50
  Q 431.50 624.50 445.74 662.51
  Q 447.31 666.69 448.01 669.12
  Q 448.16 669.63 448.55 669.99
  Q 449.31 670.67 449.13 671.68
  A 0.42 0.40 -50.8 0 0 449.15 671.93
  L 451.57 678.03
  Q 451.75 678.47 451.75 678.95
  Q 451.76 679.60 452.24 680.05
  Q 452.59 680.37 452.66 680.85
  Q 452.88 682.24 453.49 683.45
  C 454.64 685.76 455.17 688.12 456.18 690.42
  C 457.14 692.58 457.67 694.90 458.62 697.07
  Q 459.76 699.70 460.32 701.60
  Q 461.02 703.93 461.89 706.21
  Q 474.99 740.58 487.81 775.05
  C 492.74 788.29 492.64 800.53 480.48 809.66
  Q 477.22 812.11 470.56 814.33
  Q 384.86 842.89 299.15 871.45
  Q 298.37 871.71 297.91 871.94
  Q 297.47 872.17 296.97 872.16
  Q 296.00 872.15 295.30 872.79
  Q 294.96 873.11 294.50 873.03
  Q 293.51 872.87 292.82 873.57
  A 1.52 1.50 22.1 0 1 291.75 874.01
  L 290.53 874.00
  Q 289.93 874.00 290.28 874.49
  Q 292.38 877.47 295.84 878.64
  Q 296.35 878.81 296.69 879.23
  C 297.82 880.62 299.64 881.49 300.87 882.41
  C 301.89 883.17 303.24 883.75 304.21 884.41
  Q 359.17 921.33 414.12 958.24
  Q 419.29 961.72 424.57 965.02
  C 427.99 967.17 432.13 970.76 434.16 974.23
  C 436.61 978.43 439.19 982.52 438.10 987.16
  Q 436.58 993.67 434.74 996.75
  Q 414.15 1031.50 394.09 1066.57
  Q 391.11 1071.79 384.14 1077.51
  Q 383.75 1077.83 383.25 1077.87
  Q 382.41 1077.94 381.72 1078.43
  Q 381.29 1078.74 380.76 1078.75
  Q 375.01 1078.85 369.28 1078.77
  C 363.40 1078.69 356.06 1073.63 350.41 1069.85
  Q 218.49 981.59 86.63 893.24
  Q 78.48 887.78 70.18 881.87
  C 58.71 873.71 46.81 866.01 35.86 857.14
  Q 31.82 853.87 29.63 847.72
  C 28.28 843.92 28.75 839.68 28.76 835.57
  Q 28.76 835.07 29.09 834.70
  Q 29.83 833.85 29.66 832.69
  Q 29.58 832.11 30.10 831.83
  Q 30.58 831.56 30.53 830.96
  A 1.09 1.08 70.3 0 1 31.00 829.96
  Q 32.08 829.22 32.50 828.00
  Q 32.70 827.41 33.14 826.97
  L 37.79 822.33
  A 1.80 1.69 -77.8 0 1 38.31 821.97
  L 50.48 816.58
  Q 50.95 816.38 51.45 816.48
  Q 52.56 816.72 53.17 815.90
  A 0.80 0.80 0.0 0 1 54.01 815.60
  Q 55.08 815.87 55.79 815.10
  Q 56.15 814.71 56.69 814.76
  Q 57.78 814.89 58.61 814.19
  Q 58.95 813.91 59.39 813.89
  L 60.23 813.85
  A 1.01 0.97 16.0 0 0 60.96 813.46
  Q 61.38 812.92 62.07 812.96
  Q 62.44 812.98 62.78 812.86
  L 68.76 810.80
  Q 69.08 810.69 69.34 810.49
  Q 69.85 810.12 70.51 810.24
  Q 71.03 810.33 71.48 810.04
  Q 72.81 809.17 74.38 808.73
  Q 77.55 807.85 80.65 806.83
  C 81.28 806.63 82.15 806.74 82.85 806.07
  Q 83.24 805.70 83.77 805.75
  Q 84.82 805.85 85.60 805.15
  Q 85.97 804.81 86.46 804.90
  Q 87.37 805.07 87.99 804.42
  Q 88.35 804.04 88.86 803.99
  C 90.95 803.79 93.14 802.58 95.27 802.10
  Q 95.80 801.98 96.20 801.62
  Q 96.83 801.05 97.73 801.25
  A 0.96 0.95 27.4 0 0 98.64 800.97
  C 99.35 800.18 100.05 800.44 100.80 800.18
  Q 107.42 797.85 114.12 795.77
  C 114.65 795.61 115.27 795.02 116.03 794.97
  Q 116.37 794.95 116.69 794.85
  L 122.69 792.86
  Q 123.01 792.75 123.26 792.53
  Q 123.44 792.38 123.67 792.29
  Q 123.88 792.21 124.32 792.28
  Q 124.98 792.40 125.48 792.01
  Q 125.76 791.79 126.09 791.68
  L 148.17 784.38
  Q 148.60 784.24 149.04 784.27
  Q 149.78 784.32 150.14 783.64
  A 0.80 0.79 -70.1 0 1 151.00 783.23
  C 152.18 783.47 152.53 782.85 153.31 782.59
  Q 159.51 780.55 165.73 778.56
  Q 166.09 778.44 166.38 778.18
  Q 166.51 778.06 166.66 777.96
  Q 166.74 777.91 166.84 777.93
  C 168.19 778.21 168.78 777.38 169.76 777.10
  Q 171.73 776.56 173.66 775.90
  C 174.41 775.65 174.85 774.99 175.96 775.22
  A 0.92 0.91 -65.6 0 0 176.88 774.87
  L 177.09 774.57
  A 0.88 0.87 26.1 0 1 178.04 774.25
  Q 179.01 774.52 179.63 773.84
  Q 180.01 773.43 180.58 773.43
  Q 181.72 773.43 182.64 772.76
  Q 183.07 772.45 183.61 772.51
  Q 184.54 772.62 185.19 771.94
  Q 185.55 771.57 186.05 771.64
  Q 187.12 771.77 187.87 771.05
  A 1.13 1.12 26.0 0 1 188.78 770.74
  Q 189.88 770.87 190.70 770.14
  Q 191.09 769.79 191.61 769.85
  Q 192.55 769.95 193.19 769.29
  Q 193.56 768.92 194.08 768.96
  C 195.29 769.07 195.89 768.37 196.75 768.11
  Q 198.58 767.56 200.40 767.00
  C 201.28 766.73 201.71 765.99 203.02 766.27
  A 0.69 0.68 -67.2 0 0 203.74 765.97
  Q 204.24 765.20 205.18 765.27
  Q 205.62 765.30 206.03 765.13
  Q 208.42 764.13 210.91 763.47
  C 211.67 763.27 212.57 762.48 213.67 762.62
  Q 214.27 762.70 214.66 762.24
  Q 215.28 761.50 216.31 761.78
  A 0.93 0.93 0.0 0 0 217.31 761.43
  Q 217.91 760.60 218.98 760.93
  A 0.77 0.76 24.5 0 0 219.85 760.61
  Q 220.27 759.94 221.03 759.96
  Q 221.49 759.97 221.92 759.82
  L 227.79 757.78
  Q 228.11 757.68 228.39 757.49
  Q 229.09 757.02 230.06 757.29
  A 0.54 0.52 25.3 0 0 230.62 757.10
  L 230.82 756.82
  Q 230.94 756.66 231.14 756.60
  Q 236.66 754.95 242.06 753.00
  C 242.75 752.75 243.79 752.88 244.54 752.19
  Q 244.94 751.82 245.49 751.92
  Q 246.48 752.09 247.11 751.27
  Q 247.33 750.99 247.68 750.99
  L 248.05 750.99
  Q 248.30 750.98 248.55 750.90
  L 254.57 748.90
  Q 254.94 748.77 255.25 748.53
  Q 255.83 748.08 256.61 748.27
  Q 257.14 748.40 257.55 748.04
  L 257.83 747.79
  Q 258.04 747.60 258.30 747.53
  Q 262.19 746.44 265.97 745.01
  C 266.82 744.69 268.04 744.84 268.94 744.04
  Q 269.30 743.72 269.78 743.77
  Q 270.74 743.88 271.43 743.23
  A 1.21 1.21 0.0 0 1 272.44 742.92
  Q 273.20 743.04 273.76 742.60
  Q 274.04 742.39 274.37 742.28
  L 281.89 739.83
  A 0.51 0.47 7.0 0 0 282.13 739.66
  Q 282.49 739.18 283.09 739.22
  Q 283.49 739.25 283.87 739.12
  L 292.55 736.20
  Q 292.79 736.12 292.98 735.95
  Q 293.14 735.82 293.34 735.75
  C 294.34 735.42 294.86 736.00 295.83 735.08
  Q 296.18 734.75 296.66 734.81
  Q 297.66 734.93 298.40 734.23
  Q 298.81 733.84 299.37 733.94
  Q 300.22 734.08 300.88 733.53
  Q 301.30 733.18 301.84 733.06
  Q 304.36 732.50 306.70 731.40
  Q 307.10 731.21 307.54 731.22
  L 308.22 731.25
  A 0.89 0.89 0.0 0 0 308.99 730.84
  Q 309.53 729.94 310.69 730.29
  Q 311.12 730.42 311.42 730.09
  Q 312.21 729.22 313.43 729.36
  Q 313.99 729.42 314.37 728.99
  Q 315.00 728.25 316.01 728.52
  Q 316.61 728.68 317.00 728.20
  L 317.34 727.78
  A 0.79 0.79 0.0 0 1 318.23 727.54
  Q 319.28 727.93 319.85 727.11
  Q 320.17 726.66 320.71 726.73
  Q 321.91 726.89 322.80 726.09
  Q 323.17 725.77 323.65 725.83
  Q 324.57 725.96 325.22 725.34
  Q 325.62 724.96 326.17 724.99
  Q 327.89 725.07 328.75 723.47
  Q 329.08 722.86 328.69 722.49
  Q 328.47 722.29 328.36 722.01
  Q 327.66 720.13 325.26 713.74
  Q 306.20 662.93 290.39 620.73
  A 172.50 0.93 69.4 0 0 281.82 597.89
  Q 274.87 579.40 258.79 536.51
  C 257.77 533.77 257.18 531.37 255.95 529.13
  Q 255.28 527.90 254.83 526.59
  Q 252.42 519.52 249.77 512.54
  C 249.14 510.88 248.46 508.21 247.21 506.15
  Q 246.94 505.70 247.02 505.19
  Q 247.13 504.54 246.74 504.06
  Q 246.53 503.80 246.41 503.48
  L 204.03 390.45
  A 0.45 0.39 -56.5 0 1 204.00 390.21
  Q 204.08 389.51 203.54 389.06
  Q 203.14 388.72 203.09 388.20
  C 202.95 386.48 201.90 385.08 201.45 383.82
  Q 196.99 371.22 192.14 358.77
  C 188.19 348.64 184.69 337.03 185.10 326.51
  C 185.43 317.95 188.04 312.51 195.48 308.24
  Q 195.90 308.00 196.38 308.06
  Q 197.09 308.15 197.61 307.65
  A 1.42 1.41 -67.2 0 1 198.56 307.26
  C 203.23 307.19 209.97 306.51 214.35 307.85
  C 215.63 308.23 216.94 308.15 218.17 308.53
  Q 229.71 312.16 236.92 315.59
  Q 238.74 316.46 239.93 316.93
  C 242.87 318.08 245.82 319.88 248.24 320.73
  Q 251.90 322.02 253.82 323.16
  A 1.31 1.30 -34.5 0 0 254.70 323.32
  Q 255.34 323.22 255.77 323.63
  Q 256.00 323.85 256.29 323.98
  L 265.14 327.79
  Q 265.46 327.92 265.80 327.90
  Q 266.30 327.88 266.68 328.24
  Q 266.94 328.50 267.27 328.64
  L 283.82 335.78
  Q 284.25 335.96 284.71 335.98
  Q 285.01 335.99 285.17 336.09
  Q 287.70 337.68 290.52 338.64
  Q 292.52 339.32 294.39 340.28
  Q 295.30 340.76 297.56 341.48
  C 299.05 341.96 300.25 343.05 301.68 343.51
  Q 305.27 344.64 308.51 346.57
  A 1.41 1.40 57.4 0 0 309.42 346.77
  Q 309.62 346.75 309.81 346.76
  Q 309.97 346.77 310.15 346.86
  C 313.94 348.94 317.23 349.64 320.54 351.66
  C 321.54 352.27 322.20 351.91 323.09 352.41
  C 324.49 353.20 325.95 353.78 327.29 354.66
  Q 327.80 354.99 328.47 354.90
  A 1.31 1.27 56.2 0 1 329.35 355.09
  Q 331.90 356.67 334.70 357.65
  Q 337.46 358.61 340.10 359.89
  Q 340.60 360.14 341.17 360.24
  C 342.74 360.51 344.85 362.08 346.46 362.70
  C 350.81 364.40 355.04 366.28 359.28 368.23
  Q 359.41 368.29 359.79 368.27
  Q 360.28 368.26 360.71 368.49
  Q 362.89 369.71 365.14 370.79
  C 365.82 371.12 366.33 370.84 366.96 371.20
  C 370.83 373.41 374.32 374.17 377.79 376.15
  Q 378.10 376.33 378.46 376.37
  Q 378.83 376.41 379.16 376.56
  L 390.22 381.43
  Q 390.99 381.76 391.46 381.80
  Q 391.80 381.82 391.98 381.93
  C 395.44 383.87 399.22 384.90 402.67 386.88
  Q 403.05 387.09 403.40 387.12
  Q 403.60 387.13 403.81 387.13
  Q 404.19 387.12 404.53 387.30
  C 406.54 388.35 408.19 389.26 410.52 390.06
  Q 412.18 390.62 413.74 391.42
  C 416.27 392.72 418.95 393.36 421.41 394.90
  Q 421.87 395.19 422.29 395.23
  Q 422.56 395.25 422.84 395.25
  A 0.74 0.65 -27.9 0 1 423.17 395.33
  L 428.37 397.91
  A 0.93 0.92 -36.9 0 0 428.96 397.99
  C 429.94 397.82 430.13 398.46 430.84 398.77
  Q 436.14 401.10 441.53 403.22
  C 443.13 403.86 446.30 406.00 447.80 406.02
  Q 448.29 406.03 448.72 406.26
  Q 451.01 407.46 453.30 408.64
  Q 453.56 408.77 453.99 408.74
  Q 454.48 408.70 454.93 408.93
  C 458.94 410.96 462.63 411.96 465.61 413.90
  Q 466.01 414.16 466.71 414.09
  A 1.34 1.31 57.6 0 1 467.60 414.30
  C 470.36 416.11 473.40 416.81 476.32 418.25
  C 479.00 419.57 481.78 420.30 484.35 421.89
  Q 484.80 422.17 485.27 422.20
  Q 485.51 422.22 485.76 422.23
  Q 486.25 422.25 486.67 422.51
  Q 488.65 423.73 490.81 424.56
  Q 493.96 425.78 495.07 426.29
  Q 498.14 427.72 501.31 428.90
  C 502.08 429.18 503.23 430.22 504.42 430.28
  Q 504.93 430.31 505.39 430.55
  L 509.92 432.87
  A 1.40 1.40 0.0 0 0 510.78 432.99
  Q 511.47 432.86 511.94 433.33
  Q 512.23 433.63 512.62 433.79
  C 514.05 434.41 515.20 435.20 516.72 435.64
  Q 518.53 436.16 520.22 437.00
  Q 522.05 437.92 524.27 438.71
  C 526.17 439.39 527.73 440.49 529.69 441.13
  Q 532.15 441.94 534.35 443.36
  Q 534.76 443.62 535.24 443.64
  C 536.90 443.72 539.74 445.47 541.26 446.26
  Q 541.70 446.49 542.20 446.47
  Q 542.39 446.47 542.58 446.47
  Q 542.75 446.47 542.91 446.56
  Q 544.36 447.38 545.88 448.04
  C 546.97 448.51 547.58 449.67 549.28 449.12
  Q 549.75 448.97 549.75 448.48
  L 549.75 447.55
  Q 549.75 447.05 550.07 446.67
  Q 551.03 445.53 550.62 444.01
  A 0.84 0.83 58.7 0 1 550.80 443.25
  C 551.69 442.21 551.45 441.26 551.69 440.30
  Q 597.63 256.66 643.51 73.01
  Q 644.94 67.27 646.33 63.08
  Q 648.77 55.70 650.16 53.46
  C 652.20 50.18 653.92 46.45 656.57 43.66
  Q 658.25 41.90 659.98 40.18
  C 661.57 38.60 663.40 38.02 665.34 36.97
  Q 665.80 36.73 666.31 36.81
  Q 667.74 37.05 669.07 36.58
  Q 669.53 36.41 670.01 36.56
  Q 671.51 37.02 673.09 36.82
  Q 673.60 36.76 674.05 37.01
  Q 675.98 38.07 677.95 38.99
  Q 679.96 39.93 681.37 41.35
  Q 685.01 45.05 688.69 48.70
  C 689.75 49.75 689.95 51.08 691.25 52.14
  Q 691.61 52.44 691.68 52.90
  C 691.86 54.07 692.69 54.41 693.20 55.19
  Q 694.91 57.77 696.26 60.54
  Q 696.47 60.99 696.84 61.33
  Q 697.43 61.89 697.99 63.01
  Q 795.23 257.50 892.23 451.51
  Q 892.49 452.03 893.02 451.77
  Q 1094.11 351.23 1294.53 251.01
  Q 1296.35 250.11 1301.93 248.54
  Q 1309.09 246.52 1316.32 247.23
  C 1323.75 247.96 1330.16 251.53 1331.20 259.25
  C 1332.48 268.79 1329.42 280.52 1325.71 288.73
  Q 1325.02 290.26 1324.87 291.06
  Q 1324.78 291.55 1324.51 291.96
  Q 1323.13 294.08 1322.21 297.00
  C 1321.51 299.20 1320.21 301.34 1319.36 303.69
  Q 1318.18 306.95 1316.31 309.91
  Q 1316.05 310.33 1316.00 310.82
  Q 1315.89 311.97 1315.31 313.00
  Q 1314.14 315.07 1313.01 317.14
  Q 1312.50 318.08 1312.29 319.13
  C 1311.89 321.12 1310.80 322.82 1310.01 324.65
  C 1309.70 325.36 1308.73 326.35 1308.72 327.48
  Q 1308.72 327.98 1308.49 328.42
  Q 1306.90 331.57 1305.31 334.70
  Q 1305.15 335.01 1305.14 335.33
  Q 1305.13 335.50 1305.13 335.67
  Q 1305.14 336.01 1304.98 336.30
  C 1302.19 341.42 1300.90 346.03 1298.20 350.65
  Q 1297.94 351.09 1298.00 351.59
  Q 1298.07 352.23 1297.73 352.73
  C 1296.52 354.54 1295.67 356.71 1294.69 358.66
  C 1294.30 359.42 1294.46 360.04 1294.10 360.74
  Q 1292.49 363.95 1290.95 367.19
  Q 1290.82 367.48 1290.82 367.83
  Q 1290.82 368.33 1290.73 368.49
  Q 1289.06 371.67 1287.45 374.87
  C 1287.11 375.55 1287.32 376.13 1287.00 376.75
  Q 1285.40 379.88 1283.86 383.06
  C 1283.54 383.74 1283.73 384.43 1283.44 384.97
  C 1282.29 387.17 1280.46 389.86 1279.99 392.29
  C 1279.63 394.14 1277.75 397.01 1276.84 398.78
  C 1276.47 399.51 1276.50 400.18 1276.16 400.96
  Q 1274.76 404.19 1273.04 407.27
  Q 1272.80 407.71 1272.80 408.21
  Q 1272.80 408.40 1272.79 408.58
  Q 1272.78 408.75 1272.70 408.92
  Q 1271.07 412.33 1269.30 415.68
  A 1.17 1.14 55.0 0 0 1269.18 416.43
  Q 1269.25 416.85 1269.10 417.11
  Q 1267.22 420.39 1265.87 423.90
  C 1264.79 426.72 1262.27 430.41 1261.98 432.96
  Q 1261.95 433.24 1261.81 433.48
  C 1259.04 438.26 1257.83 442.97 1255.20 447.50
  Q 1254.89 448.04 1254.86 448.64
  Q 1254.84 449.14 1254.61 449.60
  L 1251.46 455.81
  Q 1251.22 456.29 1251.27 456.83
  Q 1251.32 457.37 1251.03 457.79
  C 1249.86 459.49 1249.09 461.68 1248.11 463.52
  C 1247.70 464.28 1247.77 464.84 1247.36 465.67
  Q 1245.82 468.82 1244.27 471.98
  Q 1244.02 472.48 1244.02 473.02
  Q 1244.03 473.52 1243.80 473.96
  C 1241.77 477.88 1240.22 481.82 1238.31 485.79
  C 1237.14 488.23 1236.14 491.30 1234.71 493.98
  C 1233.31 496.61 1232.54 499.43 1231.15 502.11
  Q 1230.13 504.08 1229.36 506.19
  Q 1228.19 509.40 1226.36 512.33
  Q 1226.02 512.88 1226.02 513.53
  Q 1226.03 514.03 1225.78 514.48
  C 1223.03 519.53 1221.87 524.08 1219.10 528.57
  C 1218.83 529.01 1219.02 529.80 1218.69 530.44
  Q 1216.37 534.92 1215.41 537.00
  Q 1215.30 537.23 1215.30 537.59
  Q 1215.29 538.10 1215.06 538.56
  L 1211.95 544.94
  Q 1211.73 545.38 1211.77 545.87
  Q 1211.80 546.31 1211.69 546.48
  Q 1209.75 549.55 1208.47 552.92
  Q 1207.49 555.50 1206.72 557.01
  Q 1205.73 558.95 1204.78 560.91
  Q 1204.57 561.36 1204.57 561.86
  Q 1204.58 562.31 1204.36 562.71
  C 1203.01 565.31 1201.91 567.46 1200.75 570.54
  Q 1199.56 573.65 1197.75 576.50
  C 1197.22 577.33 1197.37 578.65 1196.77 579.74
  C 1194.26 584.30 1193.56 587.70 1191.15 591.64
  C 1190.30 593.03 1190.11 594.83 1189.34 596.28
  C 1187.06 600.54 1185.95 604.58 1183.27 609.24
  Q 1183.03 609.67 1182.98 610.16
  C 1182.82 612.02 1180.77 615.37 1180.01 617.34
  Q 1178.44 621.44 1176.20 625.23
  Q 1175.97 625.62 1175.91 626.06
  C 1175.60 628.29 1173.48 631.69 1172.39 633.73
  Q 1172.18 634.13 1172.25 634.58
  Q 1172.39 635.46 1171.73 636.01
  A 1.36 1.25 -10.9 0 0 1171.36 636.51
  Q 1170.19 639.33 1168.75 642.01
  Q 1168.63 642.24 1168.64 642.71
  Q 1168.65 643.20 1168.41 643.65
  C 1167.21 645.89 1165.29 648.93 1164.98 651.43
  Q 1164.95 651.68 1164.79 651.93
  C 1162.58 655.30 1161.62 658.98 1159.83 662.43
  C 1157.87 666.20 1156.80 670.08 1154.51 673.76
  C 1154.11 674.41 1154.30 675.56 1153.78 676.49
  Q 1151.99 679.66 1150.73 683.06
  C 1149.63 686.00 1147.65 688.64 1146.98 691.57
  Q 1146.83 692.20 1146.60 692.61
  C 1143.99 697.33 1142.77 702.06 1140.23 706.10
  C 1139.67 706.98 1140.04 707.47 1139.64 708.30
  Q 1138.09 711.49 1136.42 714.64
  Q 1136.19 715.08 1136.28 715.58
  Q 1136.39 716.19 1135.94 716.69
  Q 1135.71 716.95 1135.56 717.26
  L 1132.83 722.97
  A 1.04 1.00 -34.4 0 0 1132.73 723.45
  Q 1132.77 724.16 1132.51 724.84
  A 0.60 0.59 -88.7 0 1 1132.16 725.18
  Q 1131.82 725.29 1131.78 725.65
  A 0.25 0.24 -89.0 0 0 1132.04 725.92
  L 1133.46 725.83
  Q 1133.98 725.79 1134.34 726.17
  Q 1135.09 726.99 1136.28 726.70
  A 0.77 0.77 0.0 0 1 1137.16 727.11
  Q 1137.33 727.46 1137.70 727.65
  A 0.94 0.92 -43.8 0 0 1138.47 727.66
  Q 1139.44 727.23 1139.86 728.13
  Q 1140.13 728.71 1140.75 728.55
  Q 1141.99 728.23 1142.92 729.09
  Q 1143.31 729.45 1143.83 729.38
  Q 1144.82 729.24 1145.55 730.06
  Q 1145.84 730.40 1146.28 730.33
  L 1146.93 730.23
  Q 1147.45 730.15 1147.75 730.58
  Q 1148.41 731.52 1149.62 731.18
  A 0.88 0.87 64.0 0 1 1150.56 731.51
  Q 1151.08 732.25 1152.02 732.07
  Q 1152.57 731.97 1152.99 732.34
  Q 1153.89 733.12 1155.09 732.99
  Q 1155.62 732.93 1155.95 733.34
  Q 1156.64 734.18 1157.74 733.92
  A 0.86 0.84 61.3 0 1 1158.55 734.17
  Q 1158.92 734.56 1159.34 734.73
  Q 1159.57 734.82 1160.18 734.77
  Q 1161.02 734.71 1161.54 735.37
  Q 1161.83 735.72 1162.27 735.72
  L 1163.23 735.71
  A 1.14 1.12 -22.3 0 1 1164.03 736.04
  C 1164.81 736.81 1165.71 736.55 1166.60 736.90
  Q 1168.99 737.86 1171.48 738.49
  Q 1171.98 738.62 1172.39 738.94
  Q 1173.04 739.46 1173.92 739.24
  Q 1174.44 739.12 1174.73 739.57
  Q 1175.26 740.38 1176.28 740.21
  A 0.52 0.48 47.4 0 1 1176.52 740.23
  L 1182.33 742.23
  Q 1182.84 742.40 1183.29 742.68
  L 1183.60 742.87
  Q 1183.93 743.07 1184.29 742.96
  Q 1185.23 742.68 1185.77 743.44
  A 0.93 0.91 -23.6 0 0 1186.72 743.80
  Q 1187.70 743.58 1188.34 744.24
  Q 1188.72 744.63 1189.25 744.65
  C 1191.54 744.75 1195.06 746.52 1198.56 747.50
  Q 1198.99 747.62 1199.31 747.93
  L 1199.57 748.17
  Q 1199.78 748.38 1200.07 748.29
  Q 1201.14 747.97 1201.91 748.76
  Q 1202.34 749.19 1202.95 749.20
  L 1203.71 749.21
  A 1.27 1.25 -21.3 0 1 1204.59 749.59
  Q 1205.14 750.16 1205.98 750.03
  A 1.11 1.11 0.0 0 1 1206.91 750.30
  Q 1207.79 751.08 1208.97 750.99
  A 1.13 1.11 -25.3 0 1 1209.83 751.29
  L 1210.23 751.67
  Q 1210.68 752.09 1211.28 751.94
  Q 1212.21 751.71 1212.75 752.46
  A 0.86 0.86 0.0 0 0 1213.63 752.80
  C 1214.80 752.55 1215.17 753.24 1216.03 753.49
  Q 1220.03 754.65 1223.94 756.12
  Q 1224.41 756.30 1224.91 756.28
  Q 1225.74 756.26 1226.28 756.92
  Q 1226.57 757.28 1227.03 757.26
  L 1227.77 757.24
  Q 1228.39 757.22 1228.79 757.69
  Q 1229.38 758.40 1230.33 758.14
  A 0.90 0.89 59.6 0 1 1231.20 758.37
  Q 1231.94 759.11 1233.00 759.01
  Q 1233.54 758.96 1233.94 759.33
  Q 1234.79 760.11 1235.95 759.97
  A 0.96 0.96 0.0 0 1 1236.81 760.30
  Q 1237.50 761.11 1238.55 760.88
  A 0.88 0.88 0.0 0 1 1239.40 761.16
  Q 1240.12 761.97 1241.26 761.73
  Q 1241.86 761.61 1242.22 762.11
  Q 1242.64 762.73 1243.34 762.69
  Q 1243.73 762.67 1244.10 762.79
  L 1250.24 764.80
  A 0.29 0.24 -4.7 0 1 1250.31 764.85
  Q 1251.01 765.52 1251.98 765.25
  A 0.86 0.85 65.5 0 1 1252.90 765.60
  Q 1253.53 766.54 1254.74 766.22
  A 0.87 0.86 65.1 0 1 1255.68 766.57
  Q 1256.22 767.35 1257.22 767.11
  A 0.95 0.94 -29.9 0 1 1258.09 767.34
  Q 1258.90 768.10 1260.01 768.00
  Q 1260.56 767.96 1260.95 768.34
  Q 1261.72 769.08 1262.80 768.96
  Q 1263.35 768.90 1263.73 769.29
  Q 1264.46 770.03 1265.50 769.87
  A 0.96 0.96 0.0 0 1 1266.35 770.16
  Q 1267.10 770.94 1268.22 770.73
  A 0.95 0.93 -26.3 0 1 1269.09 771.01
  C 1269.81 771.80 1270.52 771.52 1271.30 771.81
  Q 1274.09 772.89 1276.97 773.63
  A 0.88 0.85 76.9 0 1 1277.42 773.92
  Q 1277.57 774.11 1277.79 774.23
  Q 1278.07 774.38 1278.39 774.30
  Q 1279.45 774.01 1280.07 774.81
  Q 1280.41 775.24 1280.96 775.24
  L 1281.95 775.24
  Q 1282.42 775.24 1282.70 775.61
  Q 1283.20 776.28 1284.03 776.09
  Q 1284.57 775.97 1284.99 776.32
  Q 1285.91 777.10 1287.12 777.01
  Q 1287.62 776.96 1287.96 777.34
  Q 1288.65 778.12 1289.67 777.95
  Q 1290.26 777.86 1290.68 778.28
  Q 1291.40 778.99 1292.46 778.82
  A 0.91 0.88 65.3 0 1 1293.29 779.14
  Q 1293.81 779.77 1294.60 779.74
  Q 1294.98 779.73 1295.33 779.85
  L 1303.69 782.64
  Q 1304.10 782.78 1304.48 783.01
  L 1304.95 783.30
  Q 1305.10 783.39 1305.25 783.33
  Q 1306.34 782.92 1306.96 783.83
  A 0.97 0.95 -17.5 0 0 1307.77 784.24
  L 1308.76 784.22
  Q 1309.34 784.21 1309.71 784.67
  Q 1310.17 785.23 1310.99 785.06
  A 1.16 1.11 58.7 0 1 1311.93 785.31
  Q 1312.83 786.07 1314.03 786.00
  Q 1314.61 785.96 1314.99 786.40
  Q 1315.66 787.16 1316.70 786.93
  Q 1317.19 786.82 1317.54 787.19
  C 1318.31 787.99 1318.98 787.69 1319.80 787.99
  Q 1325.13 789.90 1330.56 791.53
  Q 1331.04 791.67 1331.42 792.00
  Q 1331.99 792.50 1332.77 792.23
  A 0.81 0.79 -25.9 0 1 1333.72 792.55
  Q 1334.19 793.29 1335.05 793.24
  Q 1335.45 793.21 1335.83 793.34
  L 1341.51 795.29
  Q 1341.89 795.42 1342.21 795.65
  Q 1342.82 796.10 1343.63 795.92
  Q 1344.17 795.79 1344.54 796.21
  Q 1345.18 796.95 1346.24 796.77
  A 1.07 1.06 62.6 0 1 1347.17 797.07
  Q 1347.91 797.82 1348.97 797.71
  Q 1349.46 797.65 1349.86 797.94
  C 1351.29 798.95 1354.23 799.40 1355.97 800.16
  Q 1356.38 800.34 1356.82 800.31
  Q 1357.75 800.25 1358.38 800.98
  A 0.90 0.89 62.2 0 0 1359.30 801.27
  Q 1360.32 801.00 1360.90 801.80
  Q 1361.21 802.23 1361.74 802.21
  L 1362.55 802.19
  A 1.34 1.33 -23.5 0 1 1363.54 802.58
  Q 1364.13 803.15 1364.98 803.02
  A 1.14 1.14 0.0 0 1 1365.92 803.31
  Q 1366.80 804.10 1368.00 803.98
  A 1.02 1.02 0.0 0 1 1368.90 804.35
  Q 1369.53 805.11 1370.53 804.91
  Q 1371.08 804.80 1371.47 805.20
  Q 1372.21 805.97 1373.37 805.76
  Q 1373.89 805.67 1374.20 806.10
  Q 1374.63 806.73 1375.33 806.69
  Q 1375.74 806.66 1376.12 806.79
  L 1384.67 809.62
  Q 1385.02 809.73 1385.31 809.97
  Q 1385.89 810.47 1386.76 810.22
  A 0.86 0.85 64.7 0 1 1387.70 810.56
  Q 1388.25 811.39 1389.27 811.16
  A 1.14 1.11 -29.1 0 1 1390.29 811.44
  Q 1391.00 812.12 1391.99 812.01
  A 1.19 1.19 0.0 0 1 1392.93 812.32
  Q 1393.78 813.11 1394.95 812.97
  A 1.00 0.98 -23.6 0 1 1395.81 813.30
  Q 1396.50 814.12 1397.57 813.87
  A 0.86 0.85 -25.8 0 1 1398.41 814.16
  Q 1399.00 814.88 1399.99 814.75
  Q 1400.52 814.68 1400.96 814.99
  C 1402.06 815.75 1403.12 815.58 1404.21 816.22
  Q 1409.78 819.51 1411.52 820.96
  C 1427.93 834.69 1415.65 851.60 1403.30 862.03
  C 1389.97 873.29 1376.99 885.16 1363.37 895.89
  Q 1309.77 938.13 1256.26 980.49
  Q 1159.07 1057.43 1061.78 1134.24
  C 1055.73 1139.02 1051.70 1143.06 1044.99 1143.53
  C 1039.80 1143.90 1035.83 1143.74 1032.11 1142.12
  C 1028.11 1140.38 1023.48 1134.45 1021.55 1130.18
  Q 1020.12 1127.01 1018.29 1118.75
  Q 1012.63 1093.14 1006.70 1067.60
  C 1004.89 1059.78 1001.45 1046.55 999.24 1035.49
  Q 998.61 1032.32 998.96 1029.43
  A 1.71 1.69 68.4 0 1 999.33 1028.56
  Q 999.80 1028.00 999.77 1027.25
  Q 999.75 1026.74 999.98 1026.29
  C 1001.71 1022.88 1002.88 1019.63 1006.35 1017.13
  C 1012.84 1012.43 1018.79 1006.94 1023.62 1003.12
  Q 1139.29 911.67 1170.58 886.83
  C 1171.85 885.82 1172.69 884.56 1174.35 883.66
  Q 1177.60 881.89 1180.14 879.19
  Q 1180.69 878.61 1179.89 878.57
  Z"
/>
<path fill="#e0351b" d="
  M 576.77 1242.75
  Q 576.76 1243.77 576.01 1244.39
  Q 575.65 1244.69 575.42 1245.10
  L 549.00 1293.70
  Q 548.98 1293.72 548.96 1293.73
  Q 548.86 1293.81 548.76 1293.88
  Q 548.67 1293.94 548.61 1294.05
  Q 546.18 1298.57 543.79 1303.10
  C 541.83 1306.81 539.89 1310.44 538.06 1314.22
  C 537.56 1315.28 536.68 1315.75 536.15 1316.89
  Q 534.46 1320.47 532.76 1324.05
  C 532.25 1325.12 531.31 1325.64 530.81 1326.71
  C 529.69 1329.12 527.94 1333.66 526.13 1335.47
  Q 525.89 1335.71 525.79 1335.93
  Q 522.69 1342.56 521.64 1344.23
  Q 518.90 1348.57 518.06 1350.15
  Q 515.25 1355.45 512.45 1360.77
  C 510.93 1363.64 506.44 1368.52 503.56 1370.02
  Q 502.16 1370.75 500.76 1371.53
  Q 500.26 1371.81 499.68 1371.72
  Q 498.97 1371.60 498.51 1372.13
  A 1.10 1.10 0.0 0 1 497.68 1372.51
  Q 418.25 1372.52 338.83 1372.51
  C 330.57 1372.51 322.82 1371.81 315.89 1367.94
  C 308.57 1363.86 305.75 1357.24 302.33 1350.23
  Q 301.98 1349.52 301.82 1348.16
  C 301.70 1347.07 301.18 1346.33 301.09 1345.33
  Q 299.54 1329.37 308.10 1314.61
  C 318.11 1297.34 328.19 1280.10 338.16 1262.83
  Q 353.97 1235.44 370.05 1208.21
  Q 371.09 1206.45 371.97 1204.61
  C 373.94 1200.48 376.88 1196.45 378.65 1192.89
  C 379.42 1191.35 380.44 1190.19 381.05 1188.99
  C 385.26 1180.79 390.25 1173.24 394.90 1164.92
  Q 394.91 1164.90 397.03 1161.45
  C 397.98 1159.89 398.66 1158.12 399.60 1156.65
  Q 402.25 1152.50 404.59 1148.17
  C 406.10 1145.37 408.22 1142.03 409.97 1138.99
  Q 429.10 1105.85 448.38 1072.79
  Q 449.05 1071.65 450.35 1069.12
  Q 451.31 1067.26 452.42 1065.47
  C 455.69 1060.16 458.70 1054.76 461.84 1049.38
  Q 473.02 1030.27 484.11 1011.12
  Q 486.36 1007.22 487.26 1005.38
  Q 487.47 1004.93 487.87 1004.64
  Q 488.23 1004.37 488.34 1004.09
  C 489.52 1001.24 491.48 998.41 492.98 995.65
  Q 493.32 995.03 494.55 993.29
  C 495.46 992.00 496.06 990.38 496.90 988.97
  Q 500.41 983.01 503.79 976.97
  Q 503.84 976.87 503.94 976.82
  Q 504.07 976.75 504.13 976.64
  Q 516.37 955.18 522.68 944.68
  Q 524.28 942.03 525.20 940.27
  C 526.24 938.28 527.66 936.41 528.65 934.30
  C 529.55 932.35 531.11 930.73 531.86 928.56
  Q 532.02 928.10 532.36 927.73
  Q 532.57 927.51 532.71 927.26
  Q 540.26 914.08 548.03 901.04
  Q 551.44 895.32 554.59 889.46
  Q 554.87 888.93 556.34 886.71
  C 557.16 885.46 557.62 884.06 558.47 882.89
  C 560.13 880.57 561.13 878.04 562.73 875.63
  C 564.05 873.64 564.74 871.59 566.24 869.55
  C 567.11 868.37 567.45 866.81 568.35 865.74
  Q 568.76 865.24 569.04 864.67
  Q 570.44 861.72 572.10 858.94
  Q 577.22 850.37 582.33 841.79
  C 582.88 840.87 583.80 838.91 584.76 837.67
  C 586.27 835.71 587.05 833.29 588.44 831.21
  C 590.61 827.94 592.17 824.10 594.40 820.89
  C 595.99 818.60 597.09 816.04 598.57 813.76
  C 599.87 811.74 601.08 809.24 602.14 807.46
  Q 610.96 792.58 619.53 777.55
  C 620.63 775.61 622.53 772.96 623.54 770.23
  C 623.77 769.60 624.83 769.00 625.23 768.06
  Q 626.30 765.58 628.06 762.82
  Q 630.08 759.63 633.64 753.57
  Q 637.56 746.90 641.28 740.11
  C 643.39 736.25 646.10 732.05 648.34 727.91
  Q 648.94 726.81 650.84 723.72
  C 652.00 721.85 652.86 719.76 654.01 717.99
  Q 657.35 712.83 659.15 709.16
  Q 659.85 707.73 660.58 706.97
  Q 660.92 706.62 661.11 706.17
  C 662.01 704.00 663.64 701.90 664.54 700.20
  Q 666.83 695.94 669.23 691.73
  Q 669.92 690.52 670.48 689.87
  Q 670.80 689.49 670.98 689.03
  C 671.92 686.65 673.55 685.09 674.77 682.38
  Q 675.33 681.13 676.60 679.30
  C 677.67 677.76 678.10 676.08 679.41 674.75
  Q 682.81 671.31 686.23 667.90
  Q 686.57 667.56 687.04 667.51
  Q 687.20 667.49 687.37 667.47
  Q 687.67 667.45 687.83 667.19
  Q 688.30 666.47 689.17 666.52
  Q 689.66 666.55 689.87 666.10
  Q 690.09 665.62 690.50 665.62
  Q 772.88 665.62 855.27 665.62
  A 0.97 0.95 71.4 0 1 856.04 666.01
  L 856.22 666.26
  A 0.76 0.75 65.5 0 0 856.98 666.55
  Q 857.51 666.45 857.76 666.88
  Q 858.01 667.29 858.47 667.42
  C 864.99 669.21 868.11 677.43 869.44 683.26
  Q 942.19 1003.39 1015.07 1323.49
  Q 1018.16 1337.02 1016.67 1347.50
  C 1015.71 1354.23 1005.71 1363.89 1000.74 1368.31
  C 1000.01 1368.96 999.76 1368.97 998.81 1368.95
  A 1.08 1.06 19.0 0 0 997.97 1369.35
  Q 997.39 1370.07 996.52 1369.85
  A 0.98 0.96 -56.8 0 0 995.65 1370.04
  Q 994.92 1370.64 994.02 1370.82
  Q 984.97 1372.63 975.75 1372.62
  Q 896.13 1372.51 816.50 1372.52
  C 813.71 1372.52 811.04 1371.70 808.76 1369.81
  C 803.30 1365.28 801.56 1361.99 800.19 1354.76
  Q 790.21 1301.83 780.05 1248.93
  C 779.79 1247.61 779.88 1245.98 778.97 1244.57
  Q 778.72 1244.18 778.76 1243.72
  L 778.84 1242.83
  Q 778.89 1242.27 778.33 1242.27
  L 577.25 1242.27
  Q 576.77 1242.27 576.77 1242.75
  Z
  M 730.76 927.86
  C 730.30 928.42 730.02 928.56 729.67 929.21
  C 722.00 943.30 713.91 957.16 706.29 971.27
  C 705.35 973.01 703.31 975.73 702.40 978.43
  C 702.11 979.30 701.30 979.58 700.90 980.39
  Q 699.26 983.65 697.67 986.93
  C 697.40 987.48 696.57 987.97 696.19 988.74
  C 694.79 991.63 693.71 993.70 691.72 997.09
  Q 690.79 998.69 689.74 1001.03
  C 689.42 1001.75 688.49 1002.29 688.07 1003.26
  C 686.59 1006.66 684.49 1009.83 682.86 1013.05
  Q 681.65 1015.45 680.21 1017.72
  C 678.69 1020.11 677.62 1022.74 676.11 1025.16
  Q 675.55 1026.06 673.90 1029.11
  Q 673.01 1030.75 671.49 1032.97
  Q 670.32 1034.68 668.15 1039.70
  Q 667.95 1040.17 667.55 1040.48
  C 666.50 1041.30 665.03 1044.96 663.63 1047.88
  C 663.30 1048.57 662.45 1048.96 662.05 1049.89
  C 660.80 1052.78 658.91 1055.42 657.59 1058.13
  Q 656.48 1060.40 655.16 1062.53
  C 653.42 1065.33 652.25 1067.83 650.82 1070.56
  C 650.55 1071.09 650.18 1071.35 649.79 1071.64
  Q 648.65 1072.51 650.00 1072.52
  L 762.02 1072.53
  A 0.66 0.65 -86.5 0 0 762.67 1071.95
  Q 762.88 1070.23 762.07 1068.73
  Q 761.82 1068.28 761.81 1067.76
  Q 761.80 1066.61 761.57 1065.49
  Q 747.94 999.87 734.26 934.25
  C 734.00 933.04 734.01 930.95 733.25 929.34
  Q 733.03 928.87 733.02 928.35
  L 732.94 925.79
  Q 732.92 925.13 732.34 925.45
  Q 731.37 925.97 731.17 926.99
  Q 731.08 927.48 730.76 927.86
  Z"
/>
</svg>
